<?xml version="1.0" encoding="utf-8"?>
<!-- Generator: Adobe Illustrator 21.0.0, SVG Export Plug-In . SVG Version: 6.00 Build 0)  -->
<svg version="1.1" id="Слой_1" xmlns="http://www.w3.org/2000/svg" xmlns:xlink="http://www.w3.org/1999/xlink" x="0px" y="0px"
	 viewBox="0 0 71.9 133.6" style="enable-background:new 0 0 71.9 133.6;" xml:space="preserve">
<style type="text/css">
	.st0{fill:#475DB0;}
</style>
<polygon class="st0" points="30.2,50.2 8.3,50.2 8.3,38.4 43.7,38.4 43.7,122.8 71.9,122.8 71.9,133.8 0,133.8 0,122.8 30.2,122.8 
	"/>
<path class="st0" d="M35.1,0.2c1.4,0,2.8,0.3,4,0.8c1.2,0.5,2.3,1.3,3.3,2.2c0.9,0.9,1.6,2,2.2,3.3c0.5,1.2,0.8,2.6,0.8,4
	c0,1.4-0.3,2.7-0.8,4c-0.5,1.2-1.2,2.3-2.2,3.3c-0.9,0.9-2,1.7-3.3,2.2c-1.2,0.5-2.6,0.8-4,0.8c-1.4,0-2.8-0.3-4-0.8
	c-1.2-0.5-2.3-1.3-3.3-2.2c-0.9-0.9-1.6-2-2.2-3.3c-0.5-1.2-0.8-2.6-0.8-4c0-1.4,0.3-2.8,0.8-4c0.5-1.2,1.2-2.3,2.2-3.3
	c0.9-0.9,2-1.7,3.3-2.2C32.3,0.5,33.7,0.2,35.1,0.2z"/>
</svg>
