<?xml version="1.0" encoding="utf-8"?>
<!-- Generator: Adobe Illustrator 21.0.0, SVG Export Plug-In . SVG Version: 6.00 Build 0)  -->
<svg version="1.1" id="Слой_1" xmlns="http://www.w3.org/2000/svg" xmlns:xlink="http://www.w3.org/1999/xlink" x="0px" y="0px"
	 viewBox="0 0 128 128" style="enable-background:new 0 0 128 128;" xml:space="preserve">
<style type="text/css">
	.st0{fill:#475DB0;}
</style>
<g>
	<path class="st0" d="M0,17.2V1.8C0,0.8,0.8,0,1.8,0h15.4c1,0,1.8,0.8,1.8,1.8v15.4c0,1-0.8,1.8-1.8,1.8H1.8C0.8,19.1,0,18.2,0,17.2
		z"/>
	<path class="st0" d="M73.6,1.8v15.4c0,1-0.8,1.8-1.8,1.8H56.3c-1,0-1.8-0.8-1.8-1.8V1.8c0-1,0.8-1.8,1.8-1.8h15.4
		C72.8,0,73.6,0.8,73.6,1.8z"/>
	<path class="st0" d="M126.2,19.1h-15.4c-1,0-1.8-0.8-1.8-1.8V1.8c0-1,0.8-1.8,1.8-1.8h15.4c1,0,1.8,0.8,1.8,1.8v15.4
		C128,18.3,127.2,19.1,126.2,19.1z"/>
	<path class="st0" d="M1.9,54.5h15.4c1,0,1.8,0.8,1.8,1.8v15.4c0,1-0.8,1.8-1.8,1.8H1.9c-1,0-1.8-0.8-1.8-1.8V56.3
		C0,55.3,0.8,54.5,1.9,54.5z"/>
	<path class="st0" d="M54.5,71.7V56.3c0-1,0.8-1.8,1.8-1.8h15.4c1,0,1.8,0.8,1.8,1.8v15.4c0,1-0.8,1.8-1.8,1.8H56.3
		C55.3,73.5,54.5,72.7,54.5,71.7z"/>
	<path class="st0" d="M128.1,56.3v15.4c0,1-0.8,1.8-1.8,1.8h-15.4c-1,0-1.8-0.8-1.8-1.8V56.3c0-1,0.8-1.8,1.8-1.8h15.4
		C127.2,54.5,128.1,55.3,128.1,56.3z"/>
	<path class="st0" d="M17.2,128H1.8c-1,0-1.8-0.8-1.8-1.8v-15.4c0-1,0.8-1.8,1.8-1.8h15.4c1,0,1.8,0.8,1.8,1.8v15.4
		C19.1,127.2,18.2,128,17.2,128z"/>
	<path class="st0" d="M71.7,128.1H56.3c-1,0-1.8-0.8-1.8-1.8v-15.4c0-1,0.8-1.8,1.8-1.8h15.4c1,0,1.8,0.8,1.8,1.8v15.4
		C73.5,127.3,72.7,128.1,71.7,128.1z"/>
	<path class="st0" d="M109,126.2v-15.4c0-1,0.8-1.8,1.8-1.8h15.4c1,0,1.8,0.8,1.8,1.8v15.4c0,1-0.8,1.8-1.8,1.8h-15.4
		C109.8,128,109,127.2,109,126.2z"/>
</g>
</svg>
