<?xml version="1.0" encoding="utf-8"?>
<!-- Generator: Adobe Illustrator 21.0.0, SVG Export Plug-In . SVG Version: 6.00 Build 0)  -->
<svg version="1.1" id="Слой_1" xmlns="http://www.w3.org/2000/svg" xmlns:xlink="http://www.w3.org/1999/xlink" x="0px" y="0px"
	 viewBox="0 0 119.5 131.3" style="enable-background:new 0 0 119.5 131.3;" xml:space="preserve">
<style type="text/css">
	.st0{fill:#475DB0;}
</style>
<g>
	<path class="st0" d="M119.5,65.6c0,19.7,0,39.4,0,59.2c0,2.3-1.5,3.7-3.1,5.1c-1.6,1.4-3.5,1.2-5.4,1.2c-30.1,0-60.2,0-90.2,0
		c-1.6,0-2.7-0.8-3.7-1.7c-0.7-0.6-1.4-1.4-1.8-2.2c-0.6-1.2-1.4-2.4-1.5-3.7c-0.1-7.7-0.1-15.4-0.1-23.2c0-1.7,1.8-3.4,3.5-3.4
		c1.5,0,1.4,0,3.5,0c3,0.1,3.6,2.1,3.6,3.7c0.1,6.5,0,10.1,0,15.5c0,1.8,1,2.8,2.7,2.8c26.7,0,53.4,0,80.2,0c1.6,0,2.1-0.4,2.1-2
		c0-34.2,0-68.5,0-102.7c0-1.7-0.6-2.3-2.3-2.3c-26.6,0-53.2,0-79.8,0c-1.7,0-2.8,1.2-2.8,2.9c0,5.5,0,11,0,16.4
		c0,1.2-1.4,2.7-2.7,2.7c-1.4,0-2.9,0-4.3,0c-2,0-3.6-1.6-3.6-3.5c0-7.5,0-15,0-22.4c0-2.4,1.2-4.3,2.9-5.9c0.8-0.8,1.8-1.5,2.8-1.9
		C20.3,0,22.2,0,22.5,0c30.9,0,59.1,0,90.1,0c1.8,0,3.9,1,5.1,2.2c1.4,1.4,1.9,3.3,1.9,5.4C119.5,26.9,119.5,46.2,119.5,65.6z"/>
	<path class="st0" d="M53.8,66.8c-0.8-1.9-7.8-10.3-2.7-23c1.7-4,6.2-11.1,19.9-11.1c9.1,0.5,12.8,4.5,14.9,7.1
		c1.4,1.7,2.6,3.1,3.3,5.3c3.6,10.4-1.8,19.9-3.6,21.4c1,0.7,3.4,2.5,4.4,3.4c2.5,2,4.1,4.7,5.5,7.6c1.3,2.6,2.4,5.9,2.3,8.9
		c-0.1,2.6,0,4.5,0,7.1c0,0.7-0.3,0.9-0.9,0.9c-0.2,0-0.4,0-0.6,0c-17.7,0-35.4,0-53,0c-1.2,0-2-0.2-2-1.5c0-3,0-6,0.2-9
		c0.1-1.3,0.3-2.6,0.8-3.8c0.5-1.4,1-2.9,1.9-4.1c1.5-2.1,2.1-3.3,4.9-5.8C50.1,69,52.8,67.6,53.8,66.8z M70.2,44.7
		c-7.4-0.1-10.3,7.7-9.2,11.2c0.2,0.5,1.3,5.6,7.8,6.9c3.4,0.5,10.3-2,10.4-9.2C79.2,52.8,79.4,45,70.2,44.7z M57.2,82.8
		c8.3,0,17.5,0,25.9,0c0.6,0,1-0.6,0.7-1.1c-5.1-12.2-22.7-11.2-27.5-0.2C56,82.1,56.5,82.8,57.2,82.8z"/>
	<path class="st0" d="M15.1,52.8c-3.7,0-7.4,0.1-11.1-0.1c-1.1,0-4,0.1-3.9-2.6c0-2.6,0-5.3,0-7.9c0-2.4,2-2.4,6.4-2.4
		c6.1-0.1,12.2-0.1,18.3,0c4.6-0.1,6.1,0.6,6,2.9c0,2.9,0,4.1,0,6.8c0,2.5-1.4,3.3-4.5,3.2C22.6,52.9,18.8,52.8,15.1,52.8z"/>
	<path class="st0" d="M15.2,77.8c4,0,8.1,0,12.1,0c1.1,0,2.2,0.1,2.9,1.1c0.2,0.4,0.5,0.8,0.5,1.2c0.1,2,0,4.1,0,6.1
		c0,2.6-1.3,4-4,4.1c-7.8,0.1-15.5,0-23.3,0c-1.2,0-2.1-0.2-2.9-1c-0.3-0.2-0.6-1-0.6-1.4c0-2.4,0-4.9,0-7.3c0-2.1,0.7-2.8,2.9-2.8
		c2.7,0,5.4,0,8,0C12.4,77.8,13.8,77.8,15.2,77.8z"/>
	<path class="st0" d="M15.1,71.5c-4,0-7.9,0-11.9,0c-0.6,0-1.3-0.1-1.9-0.3C0.6,71,0,70,0,68.9c0.1-2.5,0-4.5,0-7
		c0-1.4,0.7-2.3,2-2.6c0.7-0.2,1.4-0.2,2.1-0.2c7.3,0,14.6,0,21.9,0c1.7,0,3.2,0.1,4.2,1.6c0.1,0.2,0.4,0.8,0.4,1
		c0,2.6,0.1,4.8,0,7.4c0,1.1-1,2.5-3.3,2.5C23.3,71.5,19.2,71.5,15.1,71.5z"/>
</g>
</svg>
