<?xml version="1.0" encoding="utf-8"?>
<!-- Generator: Adobe Illustrator 21.0.0, SVG Export Plug-In . SVG Version: 6.00 Build 0)  -->
<svg version="1.1" id="Слой_1" xmlns="http://www.w3.org/2000/svg" xmlns:xlink="http://www.w3.org/1999/xlink" x="0px" y="0px"
	 viewBox="0 0 134 131.3" style="enable-background:new 0 0 134 131.3;" xml:space="preserve">
<style type="text/css">
	.st0{fill:#475DB0;}
</style>
<g>
	<path class="st0" d="M67.4,131c-17,0-34.1-0.1-51.1,0c-3,0-5.5-0.9-7.9-2.4c-3.8-2.3-6.4-5.6-7.6-9.9c-0.3-1-0.5-2-0.5-2.9
		c0-33.2,0-66.4-0.1-99.6c0-4,1.5-7.3,4-10.2c2.1-2.5,4.8-4.3,8-5.2c1-0.3,2-0.5,2.9-0.5c26.8,0,53.6,0,80.4-0.1
		c3.1,0,5.6,1,8.1,2.5c3.5,2.2,6,5.3,7.2,9.2c0.6,1.9,0.9,4,0.9,6c0,10.3-0.1,20.6-0.1,30.8c0,0.9,0.3,1.2,1.2,1.2
		c1.5-0.1,3-0.1,4.6,0c6.4,0.2,11.1,3.2,14.4,8.5c1.5,2.5,2.2,5.2,2.2,8.2c-0.1,16.3-0.1,32.6,0,48.8c0,3.5-1.2,6.4-3.2,9.1
		c-2.1,2.9-4.9,4.9-8.3,5.9c-1.1,0.3-2.2,0.5-3.3,0.5C102,131.1,84.7,131,67.4,131z M101.1,66.9C101.1,66.9,101.1,66.9,101.1,66.9
		C101,50.8,101,34.6,101,18.4c0-0.7-0.1-1.4-0.2-2.1c-0.4-3.1-3.3-5.5-6.6-5.5c-25.6,0.1-51.3,0.1-76.9,0c-3.6,0-6.5,3-6.5,6.5
		c0,32.3,0,64.5,0,96.8c0,3.4,3,6.4,6.4,6.4c24.8,0,49.7,0,74.5,0c3.1,0,6.2,0,9.2,0c1,0,1-0.4,0.8-1.2c-0.3-1.2-0.7-2.4-0.7-3.6
		C101.1,99.5,101.1,83.2,101.1,66.9z M111.8,88.3C111.9,88.3,111.9,88.3,111.8,88.3c0.1,8.8,0.1,17.6,0.1,26.4c0,0.4,0,0.7,0,1.1
		c0.9,3.1,3.4,4.9,6,4.6c2.9-0.3,5.3-2.1,5.4-5.7c0.2-10.3,0.1-20.6,0.1-30.8c0-5.9,0-11.8-0.1-17.6c-0.1-2.4-1.6-4-3.7-5
		c-2.3-1.1-4.8-0.6-7.2-0.7c-0.2,0-0.7,0.6-0.7,0.9C111.8,70.4,111.8,79.4,111.8,88.3z"/>
	<path class="st0" d="M55.9,70.3c-10,0-20-0.1-30,0c-3.9,0.1-6.2-2.9-6.2-6.2c0.1-11.5,0-23,0-34.6c0-2.4,1-4.2,3-5.3
		c0.7-0.4,1.7-0.6,2.5-0.6c20.4,0,40.8,0,61.2,0c3.2,0,5.7,2.4,5.6,6C92,38.3,92,46.7,92,55.2c0,3-0.1,6,0,9
		c0.2,3.6-2.2,6.2-6.2,6.1c-9-0.1-18.1,0-27.1,0C57.8,70.3,56.8,70.3,55.9,70.3C55.9,70.3,55.9,70.3,55.9,70.3z M56,59.8
		c8,0,16,0,24,0c1,0,1.5-0.2,1.5-1.4c-0.1-7.4,0-14.9,0-22.3c0-1.6-0.1-1.6-1.6-1.6c-10.6,0-21.2,0-31.8,0c-5.4,0-10.8,0-16.2,0
		c-0.8,0-1.5,0-1.5,1.2c0,7.4,0,14.8,0,22.2c0,2,0,2,2,2C40.2,59.8,48.1,59.8,56,59.8z"/>
	<path class="st0" d="M55.8,105.8c-10.1,0-20.2,0-30.2,0c-3.3,0-5.9-2.4-5.9-5.4c0-3.1,2.5-5.4,5.9-5.4c6.9,0,13.8,0.1,20.8,0.1
		c10.7,0,21.4,0,32,0c3,0,5.9,0,8.9,0.1c2.2,0,3.6,1.3,4.4,3.2c1,2.2,0.4,4.1-1.3,5.8c-1.2,1.2-2.8,1.6-4.5,1.6
		C75.9,105.8,65.9,105.8,55.8,105.8C55.8,105.8,55.8,105.8,55.8,105.8z"/>
	<path class="st0" d="M56,88.6c-10.1,0-20.2,0-30.2,0c-3,0-4.8-1.2-5.8-4c-0.8-2.4,1.1-5.9,3.6-6.4c0.8-0.2,1.7-0.2,2.5-0.2
		c17.4,0,34.9,0,52.3,0.1c3.1,0,6.2,0,9.2,0.1c3.1,0.1,5.8,4.3,3.6,7.8c-1.1,1.7-2.7,2.6-4.7,2.6C76.4,88.6,66.2,88.6,56,88.6
		C56,88.6,56,88.6,56,88.6z"/>
</g>
</svg>
