<?xml version="1.0" encoding="utf-8"?>
<!-- Generator: Adobe Illustrator 21.0.0, SVG Export Plug-In . SVG Version: 6.00 Build 0)  -->
<svg version="1.1" id="Слой_1" xmlns="http://www.w3.org/2000/svg" xmlns:xlink="http://www.w3.org/1999/xlink" x="0px" y="0px"
	 viewBox="0 0 178.1 134.3" style="enable-background:new 0 0 178.1 134.3;" xml:space="preserve">
<style type="text/css">
	.st0{fill:#475DB0;}
</style>
<g>
	<path class="st0" d="M78.6,126.5c-1.2,1.2-2.6,2.3-4.1,3c-1.9,1-4.1,1.5-6.2,1.4c-1.8-0.1-2.2,0.2-5.4-0.7c-4-1.3-6.3-3.5-7.8-7.2
		c-0.3-0.6-0.5-1.3-0.8-1.9c-0.6-1-1.4-1.7-2.6-2c-4.4-1.1-7.2-4-8.3-8.4c-0.4-1.6-1.6-2.8-3.2-3.2c-4.5-1.1-7.4-4-8.4-8.6
		c-0.3-1.1-0.9-1.9-1.8-2.3c-0.9-0.5-1.9-0.8-2.8-1.2c-4.7-2.1-7.2-5.6-7.2-11c-0.1-4.4,0.7-8.3,3.6-11.7c0.3-0.3,0.4-0.8,0.6-1.2
		c0.7-1.3,0.2-2.6,0-3.9c-1-4.8-1.9-9.6-2.9-14.4c-1-4.8-3.7-8.6-7.4-11.8c-3.8-3.4-7.4-6.9-11.1-10.3C1,29.4,0,27.9,0,25.3
		c0-0.7-0.2-6.8,7.2-6c1.2,0.1,2.9,1.1,3.7,1.9c4.6,4.7,9.3,9.4,14,14c0.1,0.1,0.2,0.1,0.4,0.3c0.3-0.3,0.5-0.7,0.8-1
		C35.9,24.8,45.7,15,55.4,5.2c3-3,6.5-4.4,10.7-4.5c3.7-0.1,7.2,0.6,10.6,2c3.9,1.6,8.1,2.7,12.2,3.9c0.4,0.1,1,0.1,1.5-0.1
		c4.1-1.6,8.2-3.4,12.4-5c1.3-0.5,5-1.6,9.7-1.4c3.4,0.1,6.4,1.7,8.7,4c10,10.1,20,20.3,30.1,30.4c0.3,0.3,0.5,0.7,0.9,1.1
		c2.9-2.9,5.6-5.6,8.3-8.3c2.2-2.2,4.5-4.4,6.7-6.6c1.7-1.6,6.3-3.6,9.7,0.4c2.7,3.6,0.5,7.1-1.1,8.7c-2.8,2.7-5.6,5.2-8.3,7.9
		c-9.7,9.7-18.1,20.5-25.9,31.8c-1.5,2.1-2.9,4.2-4.4,6.4c-0.1,0.1-0.1,0.2-0.2,0.4c3.4,4,3.5,8.7,2.8,13.6
		c-0.6,4.2-3.3,6.9-7.2,8.4c-0.5,0.2-1.1,0.3-1.6,0.5c-1.6,0.6-2.8,1.7-3.1,3.3c-0.9,4.5-3.9,7-8.1,8.1c-1.6,0.4-2.9,1.7-3.3,3.3
		c-1.1,4.4-3.9,7.2-8.2,8.4c-1.8,0.5-2.8,1.6-3.4,3.3c-0.8,2.3-2,4.4-3.8,6c-2,1.7-4.2,2.6-6.9,2.6c-1.9,0-3.8,0.1-5.6-0.1
		c-3.6-0.5-6.4-2.6-8.6-5.3c-0.3-0.3-0.6-0.7-0.8-1C79.1,127.3,79,127,78.6,126.5z M74.4,13.6c-1.8-0.6-3.6-1.2-5.4-1.8
		c-1-0.4-2.8-0.7-3.5,0c-1.4,1.4-2.6,2.2-4,3.6C51.7,25.2,42.8,34,33,43.8c-0.4,0.4-1.3,1.7-1.6,2.3c-0.2,0.4,0.1,2.2,0.2,2.6
		c1,5.1,2,10.3,3,15.4c0.3,1.3,1.3,2.2,2.6,2.2c0.9,0,1.8,0,2.7,0c4,0.2,7.2,1.7,9,5.5c0.5,1.1,1,2.3,1.4,3.5
		c0.4,1.4,1.3,2.2,2.7,2.5c4.4,1,7.3,3.7,8.6,8.1c0.1,0.4,0.2,0.8,0.3,1.2c0.4,1.2,1.1,2,2.5,2.2c3.4,0.7,6.1,2.4,7.7,5.6
		c0.6,1.1,0.9,2.3,1.3,3.5c0.3,1.1,1.1,2,2.2,2.4c2.1,0.8,4,1.9,6,2.9c0.2,0.1,0.4,0.3,0.7,0.5c0.1-1.3,1.1-3.8,3.4-4.6
		c2-0.7,2.8-0.2,4.5,0.1c0.9,0.3,1.7,0.7,2.3,1.3c3.2,3.2,6.2,6.4,9.4,9.6c1.4,1.4,1.7,1.3,3.1-0.1c1.2-1.2,1.2-1.4,0.1-2.7
		c-0.3-0.4-0.9-1-1.3-1.4c-2.2-2.1-4.5-4.1-6.7-6.2c-3.8-3.5-3.7-4.7-3.4-8c0.2-2.2,1.6-3.3,3.5-4c1.7-0.5,3.1-0.4,4.8,0
		c0.6,0.2,1.4,0.5,1.9,1c1.9,1.9,3.7,3.8,5.5,5.7c1.5,1.6,3.1,3.1,4.7,4.7c0.3,0.3,0.9,0.5,1.2,0.3c2-0.8,2.3-2.1,1-3.8
		c-0.2-0.3-0.4-0.6-0.7-0.8c-2.5-2.4-4.8-4.9-7.5-7c-2.5-1.9-3.4-4.2-3-7.2c0,0,0-0.1,0-0.1c0.5-2.5,2.4-3.9,4.5-4.4
		c1-0.2,2.2-0.1,3.2,0.1c0.9,0.1,1.8,0.5,2.4,1c1.8,1.7,3.5,3.6,5.2,5.4c1.7,1.7,3.4,3.4,5.1,5c0.3,0.2,0.9,0.5,1,0.3
		c1.2-0.2,1.9-0.8,2.1-2.2c0.1-0.2-0.3-0.9-0.6-1.4c-0.2-0.4-0.7-0.9-1-1.2c-9.5-9.5-19-18.9-28.4-28.4c-1.3-1.3-2.5-2.1-4.7-1.9
		c-5.6,0.5-11.1-0.3-16.2-3c-0.3-0.1-0.9,0-1.1,0.2c-2.7,2.8-5.6,5.5-8.1,8.5c-6.2,6.2-10.1,6.2-16.4,5.4
		c-4.9-0.6-10.2-7.3-9.8-12.8c0.2-3.9,1.6-7.8,4.3-10.6c3.2-3.3,6.4-6.6,9.7-9.8C62.5,25.3,68.4,19.6,74.4,13.6z M144.2,45.8
		c-0.6-0.7,0.2,0.3-3-3.3c-3.1-3.4-20.8-20.2-28.3-28c-2-2.1-2.9-2.9-4.1-2.4c-7.8,3.1-15.6,6.1-23.4,9.1c-3.6,1.4-6.6,4.3-9.7,7.3
		C70.2,33.8,64,39.7,61,43c-2.6,2.8-4,4.5-6.4,7.4c-0.4,0.5-0.5,1.4-0.1,1.9c1.3,1.7,2,1.8,3.7,0.3c0,0,0.1,0,0.1-0.1
		c3.8-3.8,7.7-7.4,11.2-11.3c2.6-2.9,5.5-4.4,9.7-3.6c1.3,0.2,3.1,1.2,4.1,2c2.2,1.8,4.9,2.7,7.7,3.2c0.5,0.1,1.4,0.1,2,0
		c3.6-0.7,6.5-2.7,9.1-5.2c1.1-1.1,5.7-3.8,9.3-0.2c2.9,2.8,1.1,6.6-0.2,8c-0.3,0.3-0.7,0.7-1,1c-0.3,0.2-1.4,1.1-1.4,1.2
		c6.7,6.7,13.3,13.2,19.8,19.8C133.5,60.4,139.2,52.8,144.2,45.8z M84.1,109.5c1.6,3.9,0,5.1,1,6.9c1.5,2.5,4.1,4.7,6.3,6.4
		c0.3,0.2,0.9,0.1,1.2,0c0.4-0.2,0.7-0.6,1.1-0.9c0.6-0.5,0.7-1.4,0.2-2c-1.6-1.8-3.2-3.5-4.9-5.2C87.8,113.4,85.5,110.9,84.1,109.5
		z M44.5,97.1c0.4,0.3,0.9,0,1.1-0.2c1.7-1.5,3.5-2.8,5-4.4c1.2-1.3,1.1-1.8-0.1-3.1c-0.2-0.2-0.4-0.4-0.7-0.6
		c-0.6-0.6-1.2-0.6-1.9-0.1c-2,1.4-3.6,3.1-4.8,5.1c-0.3,0.4-0.5,1.2-0.4,1.4C43.3,96.1,43.8,96.5,44.5,97.1z M72.6,111.5
		c-0.5-0.1-0.8,0.1-1,0.2c-2.3,1.4-4.1,3.2-5.6,5.3c-0.7,1-0.3,2,0.3,2.6c0.6,0.6,1.4,1,2.5,0.3c2.2-1.3,3.9-3,5.2-5.1
		c0.3-0.4,0.5-0.9,0.3-1.4C74,112.6,73.5,111.9,72.6,111.5z M39.7,78.9c-0.3-0.5-1-1.2-1.7-1.7c-0.3-0.2-1.1-0.1-1.5,0.2
		c-2,1.2-3.4,2.9-4.8,4.7c-0.6,0.9-0.6,1.6,0.2,2.3c0.2,0.2,0.5,0.5,0.7,0.7c0.5,0.6,1.1,0.6,1.8,0.2c2.1-1.3,3.8-3.1,5-5.3
		C39.5,79.7,39.8,79.3,39.7,78.9z M62.2,101.8c-0.6-0.8-0.6-0.7-1.2-1.1c-0.3-0.2-0.9-0.2-1.3,0c-1.9,1.1-3.5,2.5-4.7,4.4
		c-1.1,1.6-1,1.9,0.4,3.2c0.8,0.7,1.4,0.7,2.3,0c1.9-1.5,3.3-3.1,4.6-5.5C62.3,102.6,62.4,102.1,62.2,101.8z"/>
</g>
</svg>
