<?xml version="1.0" encoding="utf-8"?>
<!-- Generator: Adobe Illustrator 21.0.0, SVG Export Plug-In . SVG Version: 6.00 Build 0)  -->
<svg version="1.1" id="Слой_1" xmlns="http://www.w3.org/2000/svg" xmlns:xlink="http://www.w3.org/1999/xlink" x="0px" y="0px"
	 viewBox="0 0 141.6 130.7" style="enable-background:new 0 0 141.6 130.7;" xml:space="preserve">
<style type="text/css">
	.st0{fill:#475DB0;}
</style>
<g>
	<path class="st0" d="M97.2,96.9c2.8-1.3,5.6-2.3,8.1-3.7c5.5-3,7.5-4.5,13-7.5c2.4-1.3,4.4-2.3,8.3-3.8c3.2-0.7,7.6-0.2,10.2,2
		c1,0.8,2.1,2.1,2.9,3.2c3.9,5.5,0.9,13.2-3.2,16c-7.3,5-13,9.6-20.4,14.4c-4.4,2.8-8.8,6.1-13.4,8.6c-2.8,1.5-5.8,2.7-8.8,3.7
		c-1.9,0.6-4,0.8-6,0.8c-12.5-0.2-24.9-0.4-37.4-0.7c-6.3-0.2-12.5-0.7-18.8-0.9c-3.1-0.1-8.3,0.1-11.4,0.4
		c-5.1,0.5-10.2,0.8-15.4,0.7c-2.7-0.1-4.9-2.4-5-5.1c0-3.1,0-6.2,0-9.4c0-8.2,0-16.3,0-24.5c0-1.5,0.3-2.6,1.9-3.2
		c1.8-0.6,3.6-1.4,5.4-2.1c1.8-0.7,3.6-1.4,5.4-2.1c4.7-1.8,9.3-3.9,14.5-3.6c4.3,0.3,8.6,0,12.9,0.3c2.4,0.1,4.7,0.8,7,1.3
		c2.5,0.5,5,1.1,7.5,1.8c2.1,0.6,4.1,1.3,6.1,1.9c1.5,0.4,3,0.9,4.5,0.9c7.5,0.2,15-0.1,22.5,0.3c3.8,0.2,7,2.1,9,5.7
		c0.3,0.5,0.6,1.6,0.6,2.1C97.5,95.4,97.4,96.2,97.2,96.9z M128.4,93.4c-1.3,0.2-2.4,1-3.4,1.5c-5.1,2.5-11.3,5.4-17.9,9.4
		c-5,3-9.8,5.3-15.1,6.9c-0.2,0.1-0.5,0.1-0.8,0.1c-10.5,0-20.9,0.1-31.4,0c-1.8,0-3.3-1.5-3.4-3.3c0-1.3,0-2.7,0-4
		c0-1.8,1.4-3.2,3.2-3.3c1.4-0.1,2.9-0.2,4.3-0.2c6,0,11.9,0,17.9,0c1.1,0,3.9-0.2,4.1-1.6c0.2-1.9-3.1-1.7-4.4-1.7
		c-5.4-0.1-10.9,0-16.3-0.1c-3,0-6,0.3-9-0.7c-1.5-0.5-2.9-1-4.4-1.4c-2.1-0.5-4.2-1.3-6.3-1.8c-1.6-0.4-3.2-0.8-4.9-1
		c-2.8-0.5-5.6-1-8.4-1.2c-4-0.3-7.8,0.9-11.4,2.4c-3.4,1.4-6.9,2.7-10.4,4c0,7.1,0,14.3,0,21.6c0.4,0,0.8-0.1,1.1-0.1
		c3.5-0.3,6.9-0.8,10.4-0.8c13.2,0,26.3-0.1,39.5,1c5.8,0.5,11.6,0.5,17.3,0.2c4.1-0.2,8.2,0.7,12.1-1.1c2.1-0.9,4.3-1.7,6.3-2.7
		c2.6-1.4,5.2-2.9,7.7-4.5c2.9-1.8,5.8-3.7,8.7-5.6c0.1-0.1,1.6-1.1,2.3-1.6c3.7-2.3,7.4-4.6,11.1-7c0.9-0.6,1.8-1.1,2.4-2.1
		C129.7,94.1,129.2,93.3,128.4,93.4z"/>
	<path class="st0" d="M42.9,27c-1.3-1.3-2.6-2.5-4-3.8c-1-1-1.5-2.1-1.5-3.5c0.1-5.3-0.6-4,3.2-7.8c2.3-2.3,4.7-4.6,6.9-7
		c0.9-0.9,1.9-1.4,3.2-1.3c5.8,0.1,4.1-0.7,8.4,3.5c0.6,0.6,1.2,1.3,1.8,1.9c0.1-0.1,0.2-0.1,0.3-0.2c0-1.4,0.1-2.9,0-4.3
		c-0.3-2.9,2-4.4,4.2-4.5c5-0.1,9.9-0.1,14.9,0c1.4,0,2.8,0.5,3.6,1.8c0.3,0.5,0.6,1.1,0.6,1.7c0.1,1.7,0,3.3,0,5
		c0.2,0.1,0.3,0.1,0.5,0.2c1.1-1.2,2.3-2.4,3.4-3.6c1-1.1,2.2-1.7,3.8-1.6c5.4,0.2,3.9-0.7,7.9,3.3c2.3,2.2,4.4,4.5,6.7,6.7
		c1,1,1.4,2.1,1.5,3.5c0.4,3.5-0.7,6.1-3.5,8.2c-0.7,0.5-1.3,1.1-1.9,1.7c0.1,0.1,0.1,0.3,0.2,0.4c2.1,0,4.1,0,6.2,0
		c2.3,0,3.8,1.4,3.8,3.7c0,5.3,0,10.6,0,16c0,2.3-1.5,3.7-3.8,3.7c-2,0-4.1,0-6.1,0c0,0.1-0.1,0.2-0.1,0.3c1.1,1.1,2.2,2.3,3.4,3.4
		c1.3,1.1,1.9,2.4,1.8,4.2c-0.2,4.9,0.7,3.5-3.1,7.4c-2.4,2.4-4.8,4.7-7.1,7.1c-0.9,0.9-1.9,1.4-3.2,1.3c-1-0.1-2-0.1-3,0
		c-1.3,0.1-2.3-0.4-3.2-1.3c-1.3-1.3-2.5-2.6-3.8-3.8c-0.1,0-0.3,0-0.4,0.1c0,1.5,0,3,0,4.4c0,2.5-1.3,3.8-3.8,3.8
		c-5.4,0-10.7,0-16.1,0c-1.9,0-3.4-1.5-3.4-3.5c0-1.6,0-3.1,0-4.7c0-0.1-0.1-0.1-0.2-0.5c-1.3,1.4-2.5,2.6-3.7,3.9
		c-1.1,1.2-2.3,1.8-4,1.7c-4.8-0.2-3.6,0.7-7.5-3.2c-2.3-2.3-4.7-4.7-7.1-7c-0.9-0.9-1.4-2-1.4-3.3c0.1-5.4-0.6-4.1,3.3-8
		c0.6-0.6,1.3-1.2,2-1.8c-0.1-0.1-0.1-0.3-0.2-0.4c-2,0-4-0.1-6,0c-1.4,0.1-2.5-0.5-3.2-1.6c-0.3-0.5-0.6-1.1-0.6-1.6
		c0-5.6-0.1-11.2,0-16.8c0-1.9,1.6-3.2,3.5-3.3c1.1,0,2.2,0,3.2,0c1,0,2.1,0,3.1,0C42.7,27.2,42.8,27.1,42.9,27z M74.9,68.1
		c0-1.6,0-3,0-4.5c0-1.5,0-2.9,0-4.3c1.5-0.4,3-0.5,4.2-1.1c2-0.9,3.8-1.9,5.7-3c0.8-0.5,1.4-0.6,2.2,0.2c1.4,1.6,3,3,4.5,4.5
		c2.3,2.3,2.3,2.3,4.3-0.5c-2.2-2.2-4.3-4.4-6.5-6.5c-0.7-0.7-0.7-1.2-0.2-2c1.8-2.5,3-5.3,3.5-8.3c0.2-1.1,0.6-1.6,1.8-1.5
		c2.9,0.1,5.8,0,8.7,0c0-1.4,0-2.7,0-4.1c-3.1,0-6.1,0-9.1,0c-0.9,0-1.3-0.4-1.5-1.2c-0.6-3.2-1.8-6-3.7-8.6
		c-0.5-0.7-0.4-1.1,0.2-1.7c2.2-2.1,4.3-4.3,6.5-6.4c0.2-0.2,0.5-0.5,0.5-0.6c-0.8-0.9-1.6-1.7-2.3-2.6c-0.4,0.3-0.7,0.6-1,0.9
		c-2,2-4.1,4-6,6c-0.6,0.6-1.2,0.7-1.9,0.3c-0.5-0.3-1-0.6-1.4-0.9c-2.6-1.7-5.4-2.7-8.6-3.1c0-3,0-5.8,0-8.7c-1.4,0-2.7,0-4.1,0
		c0,2.9,0,5.8,0,8.7c-3.6,0.3-6.7,1.6-9.5,3.6c-1,0.7-1.7,0.6-2.5-0.3c-2.1-2.2-4.3-4.3-6.5-6.5c-0.8,0.9-1.6,1.7-2.4,2.6
		c0.3,0.4,0.6,0.7,0.9,1c1.9,1.9,3.8,3.7,5.6,5.6c0.3,0.3,0.5,0.9,0.4,1.3c-0.4,0.9-1,1.7-1.4,2.6c-0.9,2.1-1.8,4.2-2.5,6.3
		c-0.4,1.1-0.8,1.7-2,1.7c-2.7-0.1-5.5,0-8.2,0c0,1.4,0,2.7,0,4.1c2.9,0,5.7,0,8.5,0c1,0,1.6,0.5,1.7,1.3c0.6,3.4,2.3,6.4,3.9,9.3
		c0.1,0.3,0,0.9-0.2,1.2c-1.9,2-3.9,3.9-5.8,5.9c-0.3,0.3-0.6,0.6-0.9,1c0.9,1,1.7,1.9,2.5,2.8c2.2-2.2,4.4-4.4,6.5-6.6
		c0.6-0.6,1.1-0.8,1.9-0.4c2.1,1,4.1,2.1,6.3,2.9c1.2,0.5,2.5,0.6,3.9,0.9c0,2.9,0,5.8,0,8.8C72.2,68.1,73.5,68.1,74.9,68.1z"/>
	<path class="st0" d="M72.9,22.6c9.1,0,16.4,7.4,16.4,16.4c0,9.1-7.4,16.5-16.5,16.4c-9,0-16.4-7.4-16.4-16.5
		C56.4,29.9,63.8,22.5,72.9,22.6z M72.8,44.4c3,0,5.4-2.4,5.5-5.4c0-2.9-2.3-5.4-5.3-5.4c-3-0.1-5.5,2.3-5.5,5.3
		C67.4,41.9,69.8,44.4,72.8,44.4z"/>
</g>
</svg>
