<?xml version="1.0" encoding="utf-8"?>
<!-- Generator: Adobe Illustrator 21.0.0, SVG Export Plug-In . SVG Version: 6.00 Build 0)  -->
<svg version="1.1" id="Слой_1" xmlns="http://www.w3.org/2000/svg" xmlns:xlink="http://www.w3.org/1999/xlink" x="0px" y="0px"
	 viewBox="0 0 93.9 131.3" style="enable-background:new 0 0 93.9 131.3;" xml:space="preserve">
<style type="text/css">
	.st0{fill:#475DB0;}
</style>
<g>
	<path class="st0" d="M29.8,0.1c0.8,0.4,1.6,0.6,2.3,1.1c2.1,1.5,1.9,4,2.3,6.1c0.5,3.3,0.9,6.7,1.2,10c0.4,4.8,1.4,9.7,1,14.6
		c-0.2,1.9-2.1,3.7-4,3.7c-1.3,0-2.7,0-4,0v36.5c1.7,0,3.3,0,4.9,0c3.5,0,7,0,10.4,0c1.2,0,1.8,0.6,1.8,1.6c0.1,3.3,0.1,6.5,0,9.8
		c0,1.1-1.1,1-1.8,1.1c-1.4,0.1-2.8,0-4.3,0c0,0.6-0.1,0.9-0.1,1.3c0.1,8.9,0.2,17.8,0.2,26.8c0,3,0,6-0.4,9c-0.3,2.1-1.4,4-3.1,5.6
		c-2,1.9-4.3,3.1-7,3.2c-4,0.2-8,0.3-11.9,0.1c-5.7-0.3-10.2-4.7-10.5-10.6c-0.4-6.6-0.4-13.3-0.5-19.9c-0.1-4.9,0-9.8,0-15
		c-1.4-0.1-2.5,0.1-3.7,0c-2-0.1-2.6-0.9-2.6-2.9c0-2.2,0.1-4.5,0-6.7c0-3.1,0.5-3.2,2.1-3.2h14.4V35.6c-1.5,0-2.8-0.1-4.1,0
		c-2.4,0.2-4.5-2.3-4.4-4.2c0.1-3.1,0.3-6.1,0.6-9.2c0.1-1.9,0.4-3.8,0.6-5.7c0.3-3.1,0.5-6.1,0.8-9.2c0.1-1.4,0.2-2.9,0.6-4.2
		c0.4-1.2,1.3-2.1,2.6-2.5c0.4-0.1,0.9-0.3,1.3-0.5L29.8,0.1z M18.1,85c0,0.3-0.1,0.5-0.1,0.7c0.1,10.2,0.2,20.3,0.3,30.5
		c0,1.1,0.8,1.9,2,1.9c1.8,0,3.6,0.1,5.3,0c0.7,0,1.4-0.4,2-0.9c0.5-0.4,0.4-1.9,0.4-2.9c0-9.3-0.1-18.6-0.2-27.9c0-0.5,0-0.9,0-1.3
		C24.5,85,21.3,85,18.1,85z M23,11.3c-1.2-0.4-1.5,0.1-1.6,1.1c-0.1,1.2-0.2,2.3-0.3,3.5c-0.3,2.4-0.5,4.7-0.8,7.2h4
		C23.9,19.1,23.4,15.2,23,11.3z"/>
	<path class="st0" d="M81.9,95.9c2.1,0.3,3.4,0.5,5,1c6,2.3,7,9,7,11.2c0.1,6.9,0.1,13.8,0.1,20.6c0,1.3-0.7,1.9-2,1.9
		c-2.8,0-5.5,0-8.3,0c-1,0-1.6-0.6-1.7-1.5c-0.2-1.3-0.2-2.5-0.2-3.8c0-4.5,0-9,0-13.4c0-1.9-0.6-2.7-2.5-2.8
		c-2.4-0.1-4.8,0-7.3,0.1c-1.6,0.1-2.2,0.8-2.2,2.4c0,5.7,0,11.4,0,17c0,1.3-0.4,1.9-1.7,1.9c-2.8,0-5.7,0.1-8.5,0
		c-1.6-0.1-2.1-0.9-2.1-2.6c0.1-5,0-10,0.1-15c0-2.5-0.1-5,0.3-7.4c0.5-2.8,2.2-5,4.3-6.9c2.1-1.8,4.5-2.7,7.3-3
		c0-0.4,0.1-0.8,0.1-1.2c0-20.6,0-41.2,0-61.8c0-0.8-0.2-1.1-1.1-1.3c-1.2-0.2-2.3-0.6-3.4-1.1c-2.2-1-2.8-1.6-3.9-2.7
		c-2.4-2.3-3.5-5.3-3.6-8.6c-0.1-5.4,0-10.8,0-16.2c0,0,0-0.1,0-0.1c0-2.1,0-2.2,2.2-2.3c2.6-0.1,5.2-0.1,7.8,0c1.3,0,2,0.8,2,2.2
		c0.1,4.2,0.1,8.5,0.2,12.7c0,2,0.9,2.9,2.9,2.9c2.1,0,4.2,0,6.3,0c1.6,0,2.8-1.2,2.8-2.9c0-4.3,0-8.6,0-12.9c0-1.4,0.5-2,2-2
		c2.8,0,5.6,0,8.4,0c1.1,0,1.6,0.6,1.6,1.6c0,6.2,0.3,12.5-0.1,18.7c-0.3,3.9-2.3,7.3-6.1,9.1c-1.5,0.7-3.2,1.1-4.9,1.6
		c-0.6,0.2-0.8,0.4-0.8,1.1c0.1,11.5,0.1,23,0.1,34.4c0,8.9,0,17.7,0.1,26.6C81.9,94.4,81.9,95.3,81.9,95.9z"/>
</g>
</svg>
