<?xml version="1.0" encoding="utf-8"?>
<!-- Generator: Adobe Illustrator 21.0.0, SVG Export Plug-In . SVG Version: 6.00 Build 0)  -->
<svg version="1.1" id="Слой_1" xmlns="http://www.w3.org/2000/svg" xmlns:xlink="http://www.w3.org/1999/xlink" x="0px" y="0px"
	 viewBox="0 0 78.4 78.2" style="enable-background:new 0 0 78.4 78.2;" xml:space="preserve">
<style type="text/css">
	.st0{fill:#FFFFFF;}
</style>
<g>
	<path class="st0" d="M39.4,24.7c-10.9,0-21.8,0-32.7,0c-2.7,0-4.9-1.8-5.5-4.4c-0.7-3.3,1.8-6.5,5.2-6.5c0.1,0,0.2,0,0.3,0
		c21.7,0,43.5,0,65.2,0c2.6,0,4.7,1.6,5.4,3.9c1,3.5-1.6,7-5.3,7c-8.5,0-17,0-25.6,0C44.2,24.7,41.8,24.7,39.4,24.7z"/>
	<path class="st0" d="M39.4,46.5c-10.9,0-21.7,0-32.6,0c-2.7,0-4.9-1.8-5.5-4.4c-0.7-3.3,1.8-6.5,5.2-6.5c0.1,0,0.2,0,0.3,0
		c21.7,0,43.5,0,65.2,0c2.5,0,4.6,1.4,5.3,3.7c1.2,3.6-1.4,7.2-5.3,7.2C61.2,46.5,50.3,46.5,39.4,46.5z"/>
	<path class="st0" d="M39.4,57.4c10.9,0,21.8,0,32.7,0c2.7,0,4.9,1.8,5.4,4.4c0.7,3.3-1.8,6.5-5.2,6.5c-0.1,0-0.2,0-0.3,0
		c-21.7,0-43.5,0-65.2,0c-2.7,0-4.9-1.7-5.5-4.2c-0.8-3.5,1.8-6.7,5.4-6.7c10,0,20.1,0,30.1,0C37.7,57.4,38.5,57.4,39.4,57.4z"/>
</g>
</svg>
