<?xml version="1.0" encoding="utf-8"?>
<!-- Generator: Adobe Illustrator 21.0.0, SVG Export Plug-In . SVG Version: 6.00 Build 0)  -->
<svg version="1.1" id="Слой_1" xmlns="http://www.w3.org/2000/svg" xmlns:xlink="http://www.w3.org/1999/xlink" x="0px" y="0px"
	 viewBox="0 0 144.2 144.3" style="enable-background:new 0 0 144.2 144.3;" xml:space="preserve">
<style type="text/css">
	.st0{fill:#475DB0;}
</style>
<g>
	<path class="st0" d="M118.6,33c0,1.9,0,3.6,0,5.3c0,2.2-1.3,3.6-3.5,3.6c-1,0-2.1,0-3.1,0c-2.5,0-3.9-1.4-3.9-3.9
		c0.1-4.8-0.9-9.3-3.3-13.5C101.2,18.2,96,14,89.1,11.8c-0.2-0.1-0.5-0.1-0.8-0.1c2.7,3.3,4.8,6.7,6.1,10.6c1.1,3.1,1.8,6.2,1.8,9.5
		c0,2.3,0.1,4.6,0.1,6.9c0,2.1-1.4,3.2-3.5,3.2c-1.1,0-2.2,0-3.3,0c-2.2,0-3.5-1.4-3.5-3.6c0-4.7-0.8-9.3-3.1-13.4
		C78.6,17.6,72.5,13,64.3,11.2C58.7,10,53.7,11.8,49,14.6c-5.8,3.5-9.7,8.6-11.8,15c-0.9,2.6-1,5.3-1.1,8.1c0,0.8-0.1,1.7-0.5,2.4
		c-0.5,1.2-1.7,1.7-3,1.8c-1.2,0-2.5,0-3.7,0c-2,0-3.3-1.3-3.4-3.4c0-1.8,0-3.6,0-5.2c-3.1,0-6.2-0.3-9.2,0.1
		c-3.6,0.4-5.9,4.1-5.9,7.3c0,28.4,0,56.8,0,85.2c0,4,3.6,7.6,7.6,7.6c34.2,0,68.3,0,102.5,0c3.7,0,7.7-3.6,7.5-7.2
		c-0.2-2.1,0-4.3,0-6.5c0-2.1,0-4.2,0-6.3c-1.3-0.1-2.6-0.2-4-0.4c-6.1-0.6-11.5-5.7-12.3-11.8c-0.5-3.7-0.8-7.5,0.5-11.2
		c1.9-5.5,5.9-8.7,11.6-9.7c1.4-0.3,2.8-0.3,4.4-0.4c0-1.5,0-3.1,0-4.7c-0.1-2.9-0.2-5.8-0.2-8.7c0-2.7-3.1-5.9-5.6-6.3
		c-1.1-0.2-2.2-0.3-3.3-0.3c-32.4,0-64.7,0-97.1,0c-2.9,0-3.9-0.9-4.1-3.8c-0.1-1.4,0-2.7,0-4.1c0-1.4,1.3-2.7,2.9-2.8
		c1.4-0.1,2.8-0.2,4.2-0.2c32,0,64,0,96,0c2.9,0,5.7,0.1,8.4,1.2c5,2,8.1,5.7,9.1,11c0.2,0.9,0.2,1.7,0.2,2.6c0,4.9,0,9.9,0,14.8
		c0,0.4,0,0.8,0,1.2c1.1,0.2,2.1,0.2,3.1,0.5c1.6,0.4,2.4,1.5,2.4,3.2c0,8.8,0,17.6,0,26.4c0,1.9-1.2,3.3-3.2,3.4
		c-0.7,0-1.4,0.1-2.3,0.2c0,0.4,0,0.8,0,1.3c0,5,0,10,0,15.1c0,6.7-4.6,12.3-10.9,14c-0.9,0.2-1.9,0.3-2.8,0.3
		c-36.8,0-73.6,0-110.5,0c-6.4,0-12.2-4.2-14-10.3c-0.3-1.1-0.5-2.2-0.5-3.4c0-31.4,0-62.7,0-94.1c0-6.4,4.3-12,10.4-13.7
		c1.7-0.5,3.6-0.7,5.4-0.7c3.6-0.1,7.3,0,10.9,0c0.7,0,1-0.1,1.3-0.8C32.4,10.3,40.4,3.5,51.9,0.8c2.4-0.6,4.8-0.7,7.3-0.7
		c4.3-0.1,8.5-0.2,12.7,1c1,0.3,2.2-0.4,3.3-0.6C77,0.3,78.9,0.1,80.8,0c1.7-0.1,3.4,0,5.1,0c6-0.1,11.5,1.7,16.6,4.8
		c6.5,3.9,11.1,9.4,13.9,16.5c0.3,0.7,0.7,0.7,1.3,0.7c5.6,0,11.2,0,16.7,0c1.6,0,3.6,0.3,3.9,2c0.4,2.3,0.3,4.8,0,7.1
		c-0.2,1.2-1.5,1.9-2.9,1.9c-5.1,0-10.2,0-15.3,0C119.7,33,119.2,33,118.6,33z M133.6,102.5c0-3.9,0-7.6,0-11.4c-1.4,0-2.5,0-4.5,0
		c-2.4,0-4.2,0.1-5.4,1.6c-0.8,1-1.3,1.9-1.3,4.5c0.1,3.7,1.5,5.3,4.9,5.3C130.9,102.6,131.2,102.6,133.6,102.5z"/>
</g>
</svg>
