<?xml version="1.0" encoding="utf-8"?>
<!-- Generator: Adobe Illustrator 21.0.0, SVG Export Plug-In . SVG Version: 6.00 Build 0)  -->
<svg version="1.1" id="Слой_1" xmlns="http://www.w3.org/2000/svg" xmlns:xlink="http://www.w3.org/1999/xlink" x="0px" y="0px"
	 viewBox="0 0 140.8 144.5" style="enable-background:new 0 0 140.8 144.5;" xml:space="preserve">
<style type="text/css">
	.st0{fill:#475DB0;}
</style>
<g>
	<path class="st0" d="M53.9,144.5c-1.1,0-2-0.4-2.1-0.5c-1.6-1.3-2.7-2.8-2.8-5.1c-0.1-2.4-0.8-4.7-1.1-7.1
		c-0.4-2.6-0.8-5.2-1.2-7.7c-0.1-0.3-0.4-0.8-0.7-0.9c-2.4-1.4-4.8-2.7-7.2-4c-3.7,1.4-7.5,2.9-11.3,4.4c-1.4,0.5-2.9,1.1-4.3,1.4
		c-3.2,0.6-7.3-0.9-9.1-4.5c-2.2-4.3-4.9-8.5-7.3-12.7c-2-3.4-3.4-5.9-5.3-9.3c-0.2-0.3-2-3.8-0.7-8.7c0.5-1.8,1.5-3.8,2.7-4.8
		C7,81.9,10.8,79,14.5,76c0.3-0.2,0.5-0.8,0.6-1.2c0.1-1.7,0.1-3.4,0-5c0-0.5-0.3-1.2-0.7-1.5c-4-3.2-8-6.3-12-9.5
		c-0.5-0.4-1.1-1.3-1.8-2.6c-0.7-1.5-0.5-5.5-0.1-7.3c0.5-2.2,0.8-2.9,1.5-4.1c2.4-4.4,5-8.7,7.5-13.1c1.7-3,3.5-6.1,5.3-9.1
		c1.4-2.3,5.3-3.8,8.1-3.1c2.6,0.6,5.1,1.7,7.6,2.7c2.2,0.9,4.4,1.8,6.7,2.7c0.5,0.2,1,0.4,1.4,0.6c2.3-1.3,4.6-2.6,6.9-3.7
		c1.1-0.5,1.2-1.4,1.4-2.4c0.5-2.8,1-5.7,1.4-8.5c0.3-2,0.5-4.1,0.8-6.1c0.3-2.2,1.3-3.4,3-4.5C52.7-0.1,53.6,0,53.9,0
		c11.4,0,21,0,32.5,0c2.5,0,3.5,1.4,4.4,2.5C92,4,91.8,5.9,92.1,7.7c0.6,3,0.8,6.1,1.3,9.2c0.2,1.4,0.4,2.7,0.8,4.1
		c0.1,0.4,0.7,0.7,1.1,0.9c2.2,1.2,4.5,2.4,6.9,3.7c2-0.8,4.2-1.8,6.4-2.7c2.5-1,5.1-2,7.7-2.9c3-1.1,7.2-0.2,9.2,2.2
		c1.1,1.3,1.9,2.9,2.7,4.4c2,3.4,4,6.9,6,10.3c2,3.4,3.9,6.8,5.8,10.2c1,2.3,0.7,3.9,0.7,4.2c0,1.1-0.2,2.6-0.5,3.6
		c-0.4,1.5-1,3.3-2.7,4.6c-3.8,2.9-7.6,5.8-11.3,8.8c-0.4,0.3-0.6,0.9-0.6,1.4c-0.1,1.6,0,3.2,0,4.8c0,0.7,0.2,1.2,0.8,1.6
		c4.1,3.2,8.3,6.2,12.3,9.6c0.5,0.5,1.3,1.4,1.7,2.5c0.9,2.4,0.6,6.2,0,7.7c-0.3,0.8-0.5,2.1-1.5,3.8c-2.7,4.5-5.4,9.1-8,13.7
		c-1.6,2.8-3.1,5.6-4.8,8.4c-1.3,2.3-5.3,3.8-8,3.1c-2.7-0.7-5.3-1.8-7.8-2.8c-2.2-0.8-4.3-1.7-6.4-2.6c-0.5-0.2-1.1-0.4-1.5-0.6
		c-2.3,1.3-4.4,2.6-6.7,3.7c-1.1,0.5-1.3,1.4-1.5,2.4c-0.5,2.8-1,5.7-1.4,8.5c-0.3,2-0.5,4.1-0.8,6.1c-0.3,1.7-1.3,3-2.6,4.2
		c-0.2,0.2-1.3,0.5-2,0.7C74.9,144.5,66,144.5,53.9,144.5z M82.4,134.4c0.5-3.2,0.9-6.3,1.3-9.5c0.4-2.8,0.8-5.6,1.2-8.4
		c0.2-1.3,0.9-2.1,2-2.6c3.3-1.5,6.5-3,9.3-5.3c2.6-2.1,5.3-2.4,8.3-1c2.1,0.9,4.3,1.7,6.4,2.6c2.1,0.8,4.2,1.6,6.2,2.5
		c0.9,0.4,1.2,0.2,1.6-0.4c3.6-6.3,7.2-12.5,10.8-18.8c-0.1-0.1-0.3-0.3-0.4-0.5c-3.4-2.7-6.8-5.5-10.3-8c-2.8-1.9-3.6-4.4-3.2-7.6
		c0.2-1.8,0.5-3.5,0.5-5.3c0-1.7-0.4-3.5-0.5-5.2c-0.1-2.3-0.3-4.7,1.9-6.4c2.4-1.8,4.7-3.6,7-5.5c1.7-1.3,3.4-2.6,5.1-4
		c-1.1-1.8-2.1-3.5-3.1-5.2c-2.7-4.6-5.3-9.2-7.9-13.9c-0.4-0.7-0.7-0.6-1.3-0.3c-1.5,0.7-2.9,1.3-4.4,1.9c-2.9,1.2-5.9,2.2-8.7,3.4
		c-2.4,1-4.7,1-6.8-0.6c-3.2-2.4-6.7-4.4-10.4-5.9C85.6,30,85.1,29,85,27.8c-0.3-2.1-0.4-4.2-0.8-6.4c-0.6-3.7-1.2-7.5-1.9-11.3
		c-8,0-16.1,0-24.1,0c-0.5,3.3-0.9,6.5-1.4,9.7c-0.4,2.5-0.9,5.1-1.1,7.6c-0.1,1.7-0.8,2.6-2.3,3.2c-1.2,0.5-2.5,1-3.6,1.7
		c-2.3,1.4-4.6,2.9-6.9,4.3c-2,1.3-4.1,1.2-6.2,0.3c-2.2-0.9-4.4-1.7-6.5-2.6c-2.3-0.9-4.6-1.8-6.8-2.8c-0.7-0.3-1,0.1-1.2,0.5
		c-1.1,1.9-2.2,3.9-3.3,5.8c-1.7,2.9-3.3,5.8-5,8.7c-0.9,1.5-1.7,3-2.6,4.5c4,3.1,7.8,6.1,11.7,9.2c0.8,0.6,1.8,1.5,2,2.4
		c0.4,1.8,0.3,3.6,0.2,5.4c0,1.8-0.3,3.6-0.3,5.4c0,1.9,0.4,3.9,0.4,5.8c0,1.8-0.3,3.5-2,4.7c-1.7,1.2-3.3,2.6-5,3.9
		c-2.4,1.8-4.7,3.7-7.1,5.6c3.8,6.6,7.6,13.2,11.4,19.7c1.9-0.8,3.6-1.5,5.3-2.2c2.9-1.2,5.9-2.2,8.7-3.4c2.4-1,4.8-1.1,6.9,0.5
		c3.3,2.5,6.8,4.3,10.5,6c1,0.5,1.6,1.4,1.8,2.5c0.2,1.1,0.3,2.2,0.5,3.3c0.4,2.7,0.8,5.5,1.2,8.2c0.3,1.8,0.6,3.5,0.7,5.3
		c0.1,1,0.4,1.2,1.3,1.2c7.4,0,14.7,0,22.1,0C81.7,134.4,82.1,134.4,82.4,134.4z"/>
	<path class="st0" d="M110.3,72.3c-0.1,2.4-0.1,4.9-0.4,7.3c-0.2,1.8-0.7,3.5-1.2,5.3c-0.5,1.7-1.2,3.4-1.8,5.1
		c-1.4,3.5-3.5,6.5-5.8,9.4c-2.8,3.5-6.4,6.3-10.3,8.5c-2.6,1.5-5.4,2.5-8.2,3.5c-5.9,2.1-9.6,1.6-15.6,1.5c-2.1,0-6.4-0.8-8.4-1.4
		c-2.2-0.7-4.4-1.6-6.6-2.5c-3.3-1.4-6.1-3.5-8.7-5.8c-3.6-3.1-6.3-6.8-8.5-11c-1.1-2.2-1.8-4.6-2.7-7c-2.4-6.1-2.1-13.6-1.6-18.7
		c0.9-6.3,2.5-10.6,4.2-13.9c1.3-2.5,3-4.9,4.8-7.2c2.7-3.5,6.1-6.2,9.9-8.4c2.7-1.6,5.5-2.8,8.6-3.6c2-0.5,6-1.4,9-1.6
		c3.1-0.2,5-0.2,8.1,0.1c2.4,0.2,4.7,0.8,7,1.4c2.2,0.7,4.4,1.6,6.6,2.5c3.3,1.4,6.1,3.5,8.7,5.8c3.5,3,6.2,6.8,8.4,10.9
		c1.2,2.2,1.8,4.6,2.7,7C110.1,63.6,110.3,67.9,110.3,72.3z M82.6,99.5c0.3-0.1,3.1-1.6,3.2-1.6c4.6-2.5,7.1-4.1,10-8.5
		c2.1-3.1,3.5-5.9,4.4-10.8c0.8-5.9,0.7-7.7,0.2-10.9c-0.5-3-1.3-5.2-2.7-7.9c-2.5-4.9-5.9-9.1-10.5-12.1c-2.8-1.8-6.4-3.4-9.7-4
		c-1.7-0.3-1.9-0.5-3.7-0.8c-1-0.2-3.4-0.4-4.7-0.4c-0.9,0-3.5,0.1-5.1,0.5c-3.3,0.7-5.2,1.2-8.4,3c-3.6,2-6.6,4.6-9.3,7.8
		c-2.2,2.7-4,6-5,9.3c-0.8,2.5-0.6,2.5-1,5.1c-0.7,5.1-0.1,7.9,0,8.9c0.5,2.9,1.2,5.4,2.4,8.1c2,3.8,4.4,7.3,8.9,10.8
		c1.6,1.2,3.5,2.8,5.9,3.8c0-2,0-3.5,0.1-6.2c0.1-1.6-0.8-2.4-2.2-3.2c-5.8-3.5-8.7-9.1-9.6-15.6c-0.4-2.4,0-4.9,0.4-7.3
		c0.3-1.9,0.9-3.8,1.8-5.5c1.5-3,3.6-5.6,6.4-7.6c3.3-2.3,6.8-4.1,11.1-3.7c2,0.2,3.1,1.2,3.1,3.3c0,3.9,0,7.8,0,11.6
		c0,0.4,0,1.6,0,2c1.2,0,2.2,0,3.4,0c0-0.5,0-1.6,0-2.1c0-3.8,0-7.6,0-11.4c0-1.2,0.5-2.1,1.4-2.7c1.9-1.1,3.8-1,5.8-0.3
		c4.6,1.5,8.5,4.1,11.5,8.1c2.6,3.5,3.7,7.5,4.1,11.7c0.2,2.7-0.2,5.3-0.9,7.9c-0.7,2.4-1.8,4.6-3.2,6.7c-1.8,2.4-4,4.3-6.6,5.8
		c-0.4,0.2-1.5,0.5-1.5,1.5C82.5,94.8,82.6,97.3,82.6,99.5z M59.5,64.3c-0.1,0-0.8,0.9-0.9,0.8c-0.7,1.4-1.3,2.1-2.2,4.1
		c-0.6,1.3-1,3.1-0.6,5.9c0.6,3.5,2.6,8.4,8,9.1c2,0.8,3.4,0.8,3.4,2.8c0,4.4,0,8.9,0,13.3c0,0.4,0,0.9,0,1.2c2.2,1,4.2,0.7,6.3,0.1
		c0-0.4,0-0.8,0-1.3c0-4.6,0-9.1,0-13.7c0-1.7,1.2-1.4,2.7-2c2.1-0.8,4.6-2.6,6.1-4.1c2.1-2.2,2.9-5.4,2.8-8.6c0-0.9-0.6-2.1-1-2.9
		c-0.5-1.2-1.2-2.9-2.7-4.8c-0.8-0.9-0.5,2.6-0.5,2.7c0,2.2,0,3.4,0,5.5c-0.1,1.8,0,3.8-2.1,4.4c-0.7,0.2-1.4,0.3-2.1,0.3
		c-4.2,0-8.5,0.2-12.7,0c-3.3-0.2-4.2-1-4.4-4.9C59.6,69.9,59.6,66.7,59.5,64.3z"/>
</g>
</svg>
