<?xml version="1.0" encoding="utf-8"?>
<!-- Generator: Adobe Illustrator 21.0.0, SVG Export Plug-In . SVG Version: 6.00 Build 0)  -->
<svg version="1.1" id="Слой_1" xmlns="http://www.w3.org/2000/svg" xmlns:xlink="http://www.w3.org/1999/xlink" x="0px" y="0px"
	 viewBox="0 0 78.4 78.2" style="enable-background:new 0 0 78.4 78.2;" xml:space="preserve">
<style type="text/css">
	.st0{fill:#475DB0;}
</style>
<path class="st0" d="M73.3,32.9c-0.4,13.7-7,23.4-13.2,29.5c-4.5,5-11,9.4-17.8,14.7c-2.2,1.6-4.4,1.3-6.2,0
	c-10.5-7.7-10.3-8-18.3-15C9.7,54.4,5.1,44,5.3,33.4c0.3-12.5,5.9-22.2,16.6-28.5c18-10.6,40.3-3.1,48.8,15.9
	c0.5,1.2,1.6,3.9,1.8,5.2C73.3,28.8,73.3,30.7,73.3,32.9z M39.3,70.1c2.3-1.5,11.2-8.5,12.2-9.7c4.1-3.8,9.3-9,12.7-17.6
	c1.1-5.3,1.7-10.7,0.2-15.8C61.7,17.9,55.6,11.7,46,9.2c-11.9-3.1-24.3,2.3-29.8,13c-4.3,8.4-2.7,18.7,0.3,25.2
	c2.2,4.7,6.2,9.2,10.5,13C31.3,64.7,37.3,68.6,39.3,70.1z"/>
<path class="st0" d="M39.4,50.5c-9.3,0.6-18-7.9-18-17.7c0.1-9.9,7.8-18,17.9-18s18.1,8.1,18,17.9C57.2,42.8,49.5,50.5,39.4,50.5z
	 M50.1,32.7c0.1-5.6-4.8-10.3-10.6-10.4c-6,0-10.9,4.7-10.8,10.4c0.1,5.5,5.1,10.5,10.6,10.6C44.8,43.5,50,38.3,50.1,32.7z"/>
</svg>
