<?xml version="1.0" encoding="utf-8"?>
<!-- Generator: Adobe Illustrator 21.0.0, SVG Export Plug-In . SVG Version: 6.00 Build 0)  -->
<svg version="1.1" id="Слой_1" xmlns="http://www.w3.org/2000/svg" xmlns:xlink="http://www.w3.org/1999/xlink" x="0px" y="0px"
	 viewBox="0 0 1671.8 299.6" style="enable-background:new 0 0 1671.8 299.6;" xml:space="preserve">
<style type="text/css">
	.st0{fill:#475DB0;}
</style>
<g>
	<path class="st0" d="M623,299.6c-0.5-0.5-1.1-1-1.4-1.6c-2.6-4.5-5.1-9.1-7.7-13.8c7.2-12.6,14.5-25.2,22-38.2
		c-1.2-0.1-2-0.1-2.9-0.1c-10.8,0-21.6-0.1-32.4,0c-1.8,0-2.9-0.6-3.9-2.1c-2.2-3.4-4.5-6.8-6.8-10.2c2.9-5,5.7-9.8,8.4-14.7
		c0.4-0.8,1-1.2,1.9-1.1c0.5,0,1,0,1.4,0c16,0.1,32,0.1,48,0.2c1.8,0,2.8-0.5,3.8-2.1c8.9-15.7,18-31.3,27-47
		c0.4-0.7,0.7-1.4,1.3-2.3c-0.8-0.1-1.4-0.2-2-0.2c-19.8,0-39.7,0-59.5-0.1c-1.7,0-2.4,0.7-3.1,2c-8,13.3-16,26.6-23.9,39.9
		c-1,1.6-2,2.3-3.9,2.3c-4.8-0.2-9.6-0.1-14.4-0.1c-1.3-2.7-2.6-5.2-3.8-7.7c-1-2.1-2-4.2-3.1-6.2c-0.7-1.2-0.5-2.1,0.2-3.3
		c5.1-8,10.2-16.1,15.3-24.1c0.5-0.7,0.9-1.5,1.6-2.6c-3-0.3-5.7-0.1-8.3-0.2c-2.8,0-5.6,0-8.4,0c-2.7,0-5.4,0-8.2,0
		c-2.8,0-5.6,0-8.4,0c-2.7,0-5.4,0-8.2,0c-3-5.2-5.9-10.3-8.9-15.5c3-5,6-9.9,9-14.9c14.6,0,29.1,0,44.1,0
		c-6.4-11.1-12.6-21.9-18.8-32.7c2-4.1,4-8.2,5.9-12.2c0.3-0.7,0.8-1.1,1.7-1.1c5.7,0,11.4,0,17.1,0c8.8,15.3,17.5,30.6,26.3,46
		c20.8,0,41.5,0,62.6,0c-0.4-0.9-0.8-1.6-1.2-2.2c-9.7-16.8-19.3-33.5-28.9-50.3c-0.9-1.5-1.8-2.1-3.5-2.1
		c-14.2-0.3-28.3-0.7-42.5-1.1c-3-0.1-6.1-0.3-9.1-0.3c-1.3,0-2-0.5-2.6-1.6c-1.8-3.3-3.7-6.5-5.6-9.8c-0.5-0.9-0.8-1.6-0.2-2.7
		c2.6-4.9,5-9.8,7.6-14.8c12.2,0,24.5,0,37.1,0c-0.5-1-0.9-1.8-1.3-2.5c-5.9-10.3-11.8-20.7-17.9-31c-0.9-1.5-0.9-2.7-0.2-4.2
		c1.8-3.7,3.5-7.5,5.2-11.3c0.3-0.6,0.6-1.3,1-2c0.9,0,1.8,0,2.6,0c4.6,0.1,9.1,0.3,13.7,0.1c2.2-0.1,3.3,0.8,4.3,2.6
		c5.6,10,11.4,20,17.2,30c0.4,0.7,0.9,1.5,1.5,2.5c5.9-9.9,11.7-19.5,17.6-29.4c2.2,0.1,4.4,0.3,6.6,0.4c2.7,0.1,5.4,0.2,8.2,0.3
		c1.1,0,2,0.2,2.6,1.3c2.4,4.2,4.8,8.3,7.3,12.5c-0.3,0.6-0.7,1.3-1,1.9c-7.8,13.5-15.6,27-23.5,40.4c-0.8,1.4-0.8,2.3,0,3.7
		c10,17.3,20,34.6,29.9,52c0.3,0.5,0.7,1,1.1,1.8c0.4-0.7,0.8-1.2,1.1-1.7c9.3-16.1,18.5-32.2,27.8-48.2c0.9-1.5,0.7-2.5-0.1-3.9
		c-7.9-14.5-15.8-29.1-23.7-43.6c-0.6-1-1.1-2.1-1.7-3.2c2.3-4,4.6-7.9,6.9-11.8c0.3-0.5,1.1-0.8,1.8-0.9c5.5-0.4,11-0.7,16.7-1
		c6.1,10.6,12.3,21.2,18.6,32.2c0.7-1.1,1.1-1.8,1.5-2.5c6-10.3,11.9-20.6,17.8-31c0.7-1.3,1.5-2,3.1-2.1c4.4-0.3,8.8-0.8,13.1-1.3
		c1.4-0.2,2.2,0.2,2.9,1.5c2.4,4.4,4.8,8.9,7.3,13.2c0.8,1.4,0.8,2.5,0,3.9C795.8,29.7,790,39.9,784.2,50c-0.4,0.7-0.8,1.5-1.4,2.5
		c1.1,0.1,1.8,0.2,2.6,0.2c8.4,0.1,16.8,0.2,25.2,0.4c1.6,0,3.2,0.1,4.8,0c1,0,1.6,0.3,2.1,1.2c2.3,4.6,4.7,9.1,7.1,13.7
		c-2.6,4.6-5.2,9.2-7.8,13.8c-17,0-33.9,0-51,0c-10.3,17.9-20.7,35.8-31.2,54c0.8,0.1,1.4,0.2,2,0.2c18.1,0,36.2,0,54.2,0
		c1.5,0,2.3-0.6,3-1.8c8.6-14.1,17.3-28.2,25.8-42.4c1.5-2.5,3-3.6,6-3.4c3.1,0.3,6.2,0.1,9.4,0c1,0,1.6,0.3,2.1,1.2
		c3,4.6,6,9.3,9.1,14.1c-6.1,10.6-12.2,21.2-18.6,32.2c1.3,0,2.2,0,3,0c11.8,0,23.7,0,35.5-0.1c1.7,0,2.8,0.4,3.7,1.9
		c2.7,4,5.6,8,8.5,12.1c-0.7,1.1-1.3,2.2-2,3.3c-2.3,3.8-4.6,7.5-6.7,11.3c-0.8,1.5-1.8,1.9-3.4,1.9c-11.7-0.1-23.4,0-35,0
		c-0.8,0-1.6,0-2.3,0c-0.1,0.2-0.2,0.3-0.2,0.3c0,0.1-0.1,0.2-0.1,0.2c5.4,9.8,10.8,19.6,16.2,29.5c-2.8,4.4-5.6,8.8-8.4,13.1
		c-0.3,0.5-1.2,0.9-1.8,0.9c-4.5,0.1-9,0-13.4,0.1c-1.3,0-1.8-0.8-2.3-1.7c-5.7-9.9-11.4-19.8-17.1-29.7c-2.2-3.7-4.3-7.5-6.4-11.2
		c-0.6-1.1-1.4-1.5-2.7-1.5c-18.7,0-37.4,0-56.2,0c-0.4,0-0.8,0.1-1.2,0.1c0.4,1.9,24.9,45.1,28.9,50.9c8.5,0.2,17,0.4,25.6,0.6
		c8.6,0.2,17.1,0.3,25.7,0.4c2.8,5,5.5,9.9,8.3,14.8c-0.3,0.5-0.5,1-0.8,1.4c-2.6,3.9-5.2,7.7-7.7,11.6c-0.7,1.1-1.4,1.4-2.7,1.4
		c-6.5-0.4-12.9-0.6-19.4-0.8c-3.2-0.1-6.4-0.3-9.6-0.4c-0.8,0-1.6,0-2.8,0c7,12.1,13.8,24,20.6,35.9c-3,5.1-5.9,10.2-9,15.4
		c-1.1,0-2.2,0-3.3,0c-4-0.1-8-0.2-12-0.2c-1.6,0-2.4-0.6-3.2-1.9c-6.4-11.3-13-22.6-19.5-33.9c-0.4-0.7-0.9-1.5-1.5-2.4
		c-0.6,0.9-1.1,1.6-1.5,2.4c-5.4,9.3-10.8,18.5-16.1,27.8c-1,1.7-2,2.5-4.1,2.6c-3.9,0.1-7.8,0.5-12,0.8c-3-5.2-6-10.4-9.1-15.9
		c8.9-15.2,17.8-30.4,26.9-45.9c-9.5-16.5-19-33-28.6-49.6c-1.5,1.4-27,45.2-31.1,53.2c8.2,14.8,16.5,29.8,24.9,44.9
		c-2.9,4.9-5.8,9.7-8.7,14.7c-3.4-0.2-6.7-0.4-10.1-0.6c-1.6-0.1-3.2-0.4-4.8-0.3c-1.6,0-2.5-0.5-3.3-2.1c-3.2-6.4-6.6-12.8-10-19.1
		c-1.5-2.8-3-5.6-4.6-8.6c-0.5,0.7-0.9,1.2-1.2,1.8c-6.4,11.1-12.9,22.3-19.3,33.4c-0.1,0.3-0.2,0.6-0.3,0.9
		C634.5,299.6,628.8,299.6,623,299.6z"/>
	<path class="st0" d="M1391.7,257.4c-16.3,0-31.7-3.1-46.3-10.1c-13.7-6.6-25.3-15.9-35.2-27.2c-13.7-15.5-22.2-33.5-25-54
		c-2.7-19.7-1-38.9,6.6-57.5c5.9-14.5,15-26.9,26.4-37.5c14.4-13.4,31-22.5,50.3-26.4c23.6-4.8,46.8-3.4,68.9,6.9
		c12.8,6,23.7,14.5,33.3,24.8c12.6,13.6,21.5,29.1,25.8,47.2c3.1,13,3.7,26.1,2.3,39.3c-1.8,16.3-6.8,31.6-16,45.2
		c-15.2,22.6-35.5,38.6-62.1,45.8C1411.1,256.3,1401.4,257.3,1391.7,257.4z M1346.6,150.2c0.1,1.3,0.2,3.1,0.3,5
		c0.1,1.2,0.3,2.4,0.5,3.6c3.3,16.4,12.5,28.4,27.9,34.7c18.7,7.7,41.9,2.6,55-19.1c4.7-7.7,6.5-16.2,6.4-25.2
		c-0.1-11.9-3.9-22.3-11.8-31.4c-16.3-18.7-42.7-18.6-58.2-7.2C1353.5,120.1,1346.7,133.2,1346.6,150.2z"/>
	<path class="st0" d="M1143.2,170.1c0,27.2,0,54.5,0,81.8c-20.3,0-40.3,0-60.4,0c-0.5-1.7-0.8-200.1-0.2-205c0.6-0.1,1.3-0.2,2-0.2
		c33.6,0,67.2-0.1,100.8,0c9.7,0,19.3,0.5,28.9,2.2c7.9,1.4,15.6,3.6,22.3,8.2c9.2,6.3,15.6,14.9,19,25.5
		c4.3,13.4,4.5,27.1,0.5,40.6c-3.9,13-11.9,23.1-23.4,30.2c-2.9,1.8-6.4,2.9-9.8,3.9c-5.1,1.5-10.2,2.6-15.3,3.9
		c-0.4,0.1-0.9,0.3-1.6,0.5c22.9,30,45.6,59.9,68.5,90c-0.8,0.1-1.3,0.2-1.8,0.2c-21.5,0-43,0-64.6,0c-1.3,0-2.2-0.4-3-1.5
		c-16.6-21.9-33.3-43.8-50-65.7c-3.8-5-7.7-10-11.5-15C1143.6,170,1143.4,170.1,1143.2,170.1z M1143.4,130.1c0.7,0,1.1,0.1,1.5,0.1
		c7.9,0,15.8,0,23.7,0c1.2,0,2.4-0.1,3.6-0.3c4.4-0.8,8.8-1.7,13.1-2.6c2.8-0.6,5.2-2,7.2-4.1c8-8,6.4-21,2-26.8
		c-2.8-3.7-6.6-5.4-10.9-6.5c-4.5-1.1-9-1.3-13.6-1.4c-8.1-0.1-16.1,0-24.2,0c-0.8,0-1.6,0.1-2.5,0.1
		C1143.4,102.5,1143.4,116.2,1143.4,130.1z"/>
	<path class="st0" d="M508.2,184.4c-1.6,5.2-3.6,9.8-5.9,14.3c-13.6,26.3-35.1,42.5-63.5,50.1c-9.5,2.5-19.3,3.8-29.2,3.7
		c-12.4-0.2-24.5-2.4-36-7.4c-34.6-14.9-55.6-40.9-63-77.8c-5.1-34.7,4.1-64.9,28.7-90.1c15.3-15.7,34.1-25.3,55.7-28.8
		c26.5-4.2,51.3,1,73.6,16c22,14.9,36.2,35.3,42.6,61.1c2.4,9.8,3.3,19.7,2.6,29.7c-0.2,2.9-0.7,5.8-1,9c-47.1,0-94.1,0-141.1,0
		c0,0.4-0.1,0.6-0.1,0.7c3.2,8.8,7.8,16.6,15.5,22.3c5,3.7,10.7,5.7,16.8,6.6c6.2,0.9,12.4,0.9,18.7,0c6.3-0.8,11.5-3.8,15.9-8.2
		c0.9-0.9,1.8-1.4,3.1-1.4c21.5,0,43,0,64.5,0C506.9,184.4,507.3,184.4,508.2,184.4z M451,134.3c-3.2-14.3-18.4-31.1-42.1-29.2
		c-9.9,0.8-18.7,4-25.9,11.1c-5.1,5.1-8.6,11.2-11,18.2C398.6,134.3,424.7,134.3,451,134.3z"/>
	<path class="st0" d="M283.7,128.7c-0.9,0-1.7,0-2.5,0c-19.5,0-39,0-58.5,0c-1.8,0-2.7-0.5-3.5-2.1c-1.7-3.3-3.5-6.5-5.5-9.5
		c-4.1-6-9.8-9.8-17-11c-8-1.3-16.1-1.7-24,0.3c-15,3.9-24.6,13.8-29.4,28.3c-3.3,10.1-3.5,20.6-0.1,30.7
		c5.4,16.4,16.7,26.4,34.1,28.7c9,1.2,17.8,0.3,25.9-4c9.3-4.9,16.2-12.1,19.1-22.6c0.7-2.5,1.3-4.9,2-7.5c20.2,0,40.2,0,60.6,0
		c-0.3,2.4-0.6,4.7-1,6.9c-1.7,10.3-4.2,20.3-8.5,29.9c-6.1,13.6-15.4,24.8-26.8,34.3c-12.7,10.6-27.4,16.8-43.7,19.5
		c-10.3,1.7-20.7,2.2-31.1,1.3c-26.8-2.3-49.2-13.4-67.2-33.4c-12.5-13.9-20.5-30.1-23.5-48.5c-3.6-22-1.8-43.3,7.6-63.8
		c5.3-11.7,13-21.8,22.2-30.7c11.6-11.1,25-19.3,40.5-23.9c7.6-2.3,15.4-3.6,23.3-4.2c11.6-0.8,23.2-0.1,34.5,2.5
		c18.3,4.3,33.8,13.5,47.1,26.8c12.1,12.2,19.4,27,23.8,43.5c0.6,2.2,1.1,4.3,1.7,6.5C283.5,127.3,283.6,127.9,283.7,128.7z"/>
	<path class="st0" d="M1671.8,252c-20.5,0-40.5,0-60.9,0c0-1.1,0-2.1,0-3.1c0-42.2,0-84.5,0-126.7c0-3.3-0.2-6.5-1-9.8
		c-2.3-8.9-9.4-10.8-16.3-9.1c-3.2,0.8-5.3,2.8-6.7,5.7c-1.3,2.6-1.9,5.4-2.1,8.3c-0.1,2.2-0.2,4.5-0.2,6.7c0,41.5,0,83,0,124.6
		c0,1.1,0,2.2,0,3.4c-20.4,0-40.5,0-61,0c0-0.8-0.1-1.7-0.1-2.5c0-10.6,0-21.3,0-31.9c0-33.2-0.1-66.4,0-99.6
		c0-12.1,1.9-23.9,7.1-35c9.2-19.4,24.2-32.2,44.9-37.8c17-4.6,34.2-4.6,51.1,0.5c18.4,5.5,31,17.6,38.3,35.3
		c3.6,8.6,5.5,17.7,6.3,27c0.3,3.8,0.5,7.7,0.5,11.5c0,43.4,0,86.7,0,130.1C1671.8,250.3,1671.8,251.1,1671.8,252z"/>
	<path class="st0" d="M904.4,106.1c0-19.9,0-39.5,0-59.2c51.4,0,102.6,0,153.9,0c0,19.7,0,39.3,0,59.1c-15.4,0-30.7,0-46.3,0
		c0,48.8,0,97.3,0,145.9c-20.4,0-40.5,0-61,0c-0.1-6.9,0-13.8,0-20.8c0-6.9,0-13.8,0-20.6c0-7,0-13.9,0-20.9s0-13.9,0-20.9
		c0-7,0-13.9,0-20.9c0-6.9,0-13.8,0-20.6c0-6.9,0-13.9,0-21.2c-7.9-0.1-15.6,0-23.3,0C919.9,106.1,912.3,106.1,904.4,106.1z"/>
	<path class="st0" d="M0,47.2c20.3,0,40.5,0,60.6,0c0.5,1.8,0.6,202,0.1,204.9c-20.2,0-40.4,0-60.7,0C0,183.8,0,115.6,0,47.2z"/>
</g>
</svg>
