<?xml version="1.0" encoding="utf-8"?>
<!-- Generator: Adobe Illustrator 21.0.0, SVG Export Plug-In . SVG Version: 6.00 Build 0)  -->
<svg version="1.1" id="Слой_1" xmlns="http://www.w3.org/2000/svg" xmlns:xlink="http://www.w3.org/1999/xlink" x="0px" y="0px"
	 viewBox="0 0 75 58" style="enable-background:new 0 0 75 58;" xml:space="preserve">
<style type="text/css">
	.st0{fill:#475DB0;}
</style>
<g>
	<g>
		<path class="st0" d="M37.5,0c10.8,0,21.1,0,32,0c4,0,5.5,2.5,5.5,6.5c0,15.5,0,31,0,46.5c0,4-1,5-5,5c-21.7,0-43.3,0-65,0
			c-4,0-5-1-5-5C0,37.5,0,22,0,6.5C0,2.5,0.9,0,4.9,0C15.8,0,26.7,0,37.5,0z M7.7,22.8c-0.4-0.3-0.4,1.6-0.4,2.1
			c0,8.1,0,16.2,0,24.2c0,2,1.3,2,2.7,2c18.3,0,36.6,0,55,0c2.1,0,2.8-0.7,2.7-2.8c-0.1-7.6,0-15.2,0-22.7c0-0.9,0.1-2.9-0.3-2.8
			c-0.1-0.1-1.3,0.4-1.7,0.6c-8.6,4.6-17.2,9-25.7,13.4c-1.5,0.8-2.8,1.1-4.4,0.3c-4.5-2.4-9-4.7-13.5-7
			C17.3,27.7,12.6,25.4,7.7,22.8z M37.8,8.3c-8.9,0-17.8,0-26.7,0C9.2,8.3,7.4,8,7.3,9.7c-0.2,5.8-0.1,5.4,1.9,6.4
			c8.9,4.6,17.7,9.2,26.7,13.6c1,0.5,2.6,0.3,3.7-0.2C48,25.4,56.2,21,64.5,16.9c2.8-1.3,3.4-1.2,3.4-5.4c0-3.6-0.5-3.3-3.4-3.2
			C55.6,8.4,46.7,8.3,37.8,8.3z"/>
	</g>
</g>
</svg>
