<?xml version="1.0" encoding="utf-8"?>
<!-- Generator: Adobe Illustrator 21.0.0, SVG Export Plug-In . SVG Version: 6.00 Build 0)  -->
<svg version="1.1" id="Слой_1" xmlns="http://www.w3.org/2000/svg" xmlns:xlink="http://www.w3.org/1999/xlink" x="0px" y="0px"
	 viewBox="0 0 189.5 142.1" style="enable-background:new 0 0 189.5 142.1;" xml:space="preserve">
<style type="text/css">
	.st0{fill:#FFFFFF;}
</style>
<g>
	<path class="st0" d="M98.7,142.1c-5.5,0.2-9.3-2.3-12.3-6.1c-1.8-2.3-1.8-2.2-4.3-0.8c-1.4,0.8-2.8,1.6-4.3,2.3
		c-3.1,1.5-6.4,1.9-9.7,1.1c-4.4-1-6.8-4.2-8.4-8.1c-0.3-0.8-0.6-1.6-1-2.3c-0.6-1-1.4-1.7-2.7-2c-4.7-1.2-7.8-4.2-9-8.9
		c-0.6-2.1-1.6-3.2-3.8-3.7c-4.8-1.2-7.8-4.3-8.9-9.2c-0.3-1.2-0.9-2-2-2.5c-0.6-0.3-1.2-0.5-1.8-0.7c-9.4-3.3-10.8-11.7-7.7-18.9
		c0.4-0.8,1.2-2.1,1.8-2.8c1.8-2.2,2.2-4.6,1.6-7.4C25,66,23.9,60.2,22.7,54.5c-1.1-5.2-4.1-9.1-7.9-12.5
		c-4.1-3.7-8.1-7.6-12.2-11.4C0.7,28.8-0.2,26.7,0,24c0.2-1.5,0.8-2.5,2.2-3c2.3-0.9,5-0.2,6.7,1.5c5.2,5.3,10.5,10.5,15.7,15.8
		c0.9,0.9,1.5,0.6,2.2-0.1c5.5-5.5,11-11,16.5-16.5c5.6-5.6,11.2-11.2,16.8-16.8C63.7,1.3,68,0,73,0.4c2.4,0.2,4.5,0.9,6.6,1.8
		c5,2.3,10.4,3.7,15.7,5c0.3,0.1,0.8,0,1.1-0.2c4.9-2,9.8-3.9,14.7-5.9c5.4-2.2,13.2-1.4,18,3.5C140,15.9,151,26.9,162,38
		c1.5,1.5,1.5,1.4,3-0.1c5.2-5.2,10.5-10.4,15.8-15.6c2.3-2.2,6.4-2,8,0.2c1.3,1.8,0.9,5-0.8,6.7c-1.5,1.5-3,2.8-4.6,4.2
		c-9,8.4-17,17.7-24.4,27.5c-4.6,6.1-8.9,12.5-13.4,18.7c-0.6,0.8-0.5,1.9,0.1,2.7c3,3.6,3.8,7.9,2.9,12.4c-0.9,4.4-3.6,7.3-7.8,8.8
		c-0.6,0.2-1.1,0.4-1.7,0.6c-1.7,0.6-2.9,1.8-3.3,3.5c-1,5-4.3,7.7-9,8.9c-1.9,0.5-2.9,1.6-3.4,3.6c-0.9,4.4-4.1,8-8.5,8.9
		c-2.2,0.4-3.4,1.7-4,3.5c-0.2,0.7-0.5,1.3-0.8,2C107.7,139.7,104,142.1,98.7,142.1z M59.3,67c-7,0.5-11.7-5-12.6-9.5
		c-1-5,0.2-9.5,3.7-13.3c2.2-2.4,4.4-4.6,6.7-6.9c7.8-7.6,15.6-15.2,23.4-22.8c1.5-1.4,1-2-0.5-2.9c-0.1-0.1-0.3-0.1-0.4-0.2
		c-2-0.6-4-1.2-5.9-2c-1.7-0.6-3-0.2-4.2,1c-1.5,1.4-3,2.9-4.5,4.3C54.2,25.5,43.6,36.1,33,46.7c-0.5,0.5-1.1,1-1.4,1.7
		c-0.3,0.7-0.7,1.6-0.5,2.3c1.1,6.1,2.3,12.1,3.6,18.2c0.3,1.5,1.4,2.4,3,2.4c0.9,0,1.8-0.1,2.8,0c3.7,0.3,7,1.3,8.9,4.7
		c0.9,1.5,1.7,3.2,2.2,4.9c0.6,1.7,1.5,2.6,3.2,3c3,0.7,5.6,2.1,7.2,4.7c0.9,1.5,1.6,3.2,2.2,4.9c0.5,1.5,1.2,2.5,3,2.9
		c2.6,0.5,4.8,1.7,6.6,3.7c1.5,1.7,2.5,3.7,2.9,6c0.3,1.6,1.2,2.5,2.8,2.9c1.2,0.3,2.4,0.8,3.5,1.3c4.9,2.3,7.1,6.2,6.4,11.3
		c-0.3,2.1,0.1,3.9,1.4,5.4c1.6,1.9,3.3,3.8,5.3,5.4c2,1.6,2.4,1.5,4.6-0.1c0.3-0.2,0.6-0.5,0.8-0.7c1.3-1.4,1.5-2.4,0.5-4.1
		c-0.5-0.8-1-1.6-1.6-2.2c-3.3-3.3-6.7-6.5-10-9.8c-1.4-1.3-1.5-4.8-0.4-6.2c1.9-2.4,5.7-2.5,7.8-0.3c3.3,3.4,6.5,6.9,9.9,10.1
		c2.8,2.7,4,2.6,6.9-0.8c0.1-0.1,0.1-0.1,0.1-0.2c0.7-0.9,0.8-1.9,0.1-2.9c-0.7-0.9-1.4-1.9-2.2-2.7c-3.3-3.1-6.6-6.1-9.9-9.2
		c-1.5-1.4-1.6-4.9-0.3-6.5c2-2.5,6.3-2.4,8.3,0c2.9,3.4,6,6.6,9.3,9.7c2.9,2.8,3.9,2.7,6.8-0.2c1-1,1.3-2.2,0.4-3.5
		c-0.6-0.9-1.1-1.8-1.8-2.5c-3.1-3.1-6.3-6.1-9.6-9c-1.4-1.3-1.8-2.7-1.7-4.5c0.1-2,1.2-3.5,3-4.1c2-0.6,4-0.7,5.6,1.1
		c3.2,3.4,6.4,6.9,9.8,10.2c2.7,2.6,4.1,2.8,7-0.7c0.2-0.2,0.3-0.4,0.4-0.6c0.1-0.7,0.3-1.5,0.1-2c-0.6-1.1-1.3-2.1-2.2-3
		c-7.8-7.9-15.7-15.7-23.6-23.6c-2.9-2.9-5.9-5.8-8.8-8.7c-0.8-0.8-1.7-1-2.8-0.8c-1.3,0.2-2.7,0.4-4,0.4
		c-5.2,0.1-10.1-1.2-14.7-3.6c-1.8-0.9-1.8-0.9-3.2,0.6c-3.2,3.4-6.5,6.8-9.8,10.1C67.6,65.1,63.9,67.2,59.3,67z M114.1,38.7
		c2.7,0,4.1,0.9,4.4,2.8c0.4,2.1,0.2,4.1-1.7,5.5c-0.4,0.3-0.8,0.7-1.1,1.1c-1.3,1.3-1.3,1.4,0,2.7c7,7,14.1,14.1,21.1,21.1
		c0.1,0.1,0.3,0.3,0.4,0.4c0.7,0.7,1.3,0.6,1.9-0.1c0.2-0.3,0.5-0.6,0.7-0.8c5.4-7.4,10.8-14.8,16.1-22.2c1.1-1.5,1.1-1.5-0.2-2.8
		c-8.9-8.9-17.8-17.7-26.7-26.6c-3.1-3.1-6.3-6.2-9.4-9.2c-1.2-1.1-2.4-1.4-4.2-0.6c-8.1,4.1-16.7,7.3-25.4,9.9
		c-2.4,0.7-4.4,2-6.2,3.8c-7.6,7.6-15.2,15.2-22.8,22.8c-1.6,1.6-3.2,3.1-4.6,4.7c-1.5,1.7-1.3,4.3,0.4,5.8c0.1,0.1,0.1,0.1,0.2,0.2
		c1.8,1.6,2.7,1.6,4.8,0.1c0.5-0.4,1.2-1,1.7-1.4c4.4-4.4,8.8-8.9,13.2-13.3c1-0.9,2.2-1.8,3.5-2.2c2.6-0.8,4.8,0.1,7,1.8
		c4,3.1,8.5,4.6,13.5,3.7c3.8-0.7,6.9-3,9.7-5.7C111.6,39.1,112.8,38.6,114.1,38.7z M56,97.3c-0.4-2.1-1.4-3.4-3.1-4.4
		c-1.1-0.6-2.1-0.7-3.1,0c-3,1.9-5.3,4.5-6.9,7.6c-0.1,0.2-0.2,0.5-0.2,0.7c-0.2,2.3,2.4,4.3,4.1,4.3c0.3,0.1,0.7-0.1,1-0.2
		c3-1.4,5.5-3.4,7.3-6.2C55.5,98.5,55.8,97.8,56,97.3z M72.3,130.3c0.4-0.2,0.9-0.3,1.4-0.5c2.8-1.4,4.8-3.5,6.5-6.1
		c1.3-2,1.2-2.9-0.5-4.7c-0.3-0.3-0.6-0.6-1-0.9c-1.2-0.9-2.3-1-3.6-0.2c-2.6,1.6-4.8,3.6-6.5,6.1c-0.8,1.2-1,2.5-0.1,3.8
		C69.3,129.3,70.6,130,72.3,130.3z M43.2,84.4c-0.2-1.7-0.9-2.9-2.3-3.8c-1.2-0.8-2.4-0.8-3.7-0.1c-2.3,1.4-4.1,3.2-5.6,5.3
		c-1.7,2.5-1.5,3.7,0.7,5.7c0.3,0.3,0.6,0.5,1,0.7c0.7,0.5,1.6,0.6,2.4,0.2c2.9-1.3,5.1-3.5,6.7-6.3C42.7,85.6,43,84.9,43.2,84.4z
		 M68,109.3c-0.1-1.8-2.7-4.1-4.3-4c-0.2,0-0.5,0.1-0.7,0.2c-3.2,1.6-5.8,3.9-7.3,7.3c-0.4,1-0.4,2.1,0.3,2.9c2.7,3.3,4.3,3,7.3,0.2
		c1.8-1.6,1.8-1.7,3.7-4.2C67.8,110.6,67.8,109.6,68,109.3z"/>
</g>
</svg>
