<?xml version="1.0" encoding="utf-8"?>
<!-- Generator: Adobe Illustrator 21.0.0, SVG Export Plug-In . SVG Version: 6.00 Build 0)  -->
<svg version="1.1" id="Слой_1" xmlns="http://www.w3.org/2000/svg" xmlns:xlink="http://www.w3.org/1999/xlink" x="0px" y="0px"
	 viewBox="0 0 189.9 135.1" style="enable-background:new 0 0 189.9 135.1;" xml:space="preserve">
<style type="text/css">
	.st0{fill:#FFFFFF;}
</style>
<path class="st0" d="M150.8,90c-4,15.2-12.3,27.4-25.5,35.9c-9.8,6.4-20.7,9.6-32.5,9.1c-13-0.6-24.5-5.2-34.4-13.6
	c-9.8-8.4-16.2-18.9-19.4-31.5c-1.5,0-2.9,0-4.4,0c-2.5,0-4.2-1.7-4.2-4.2c0-2.8,0-5.6,0-8.5c-0.4,0-0.7-0.1-1-0.1
	c-8.2,0-16.3-0.1-24.5,0.1c-3.9,0.1-6.2-4.1-4.5-7.3c0.6-1.1,1.5-2.2,2.4-3.1c3.1-3.5,6.3-7,9.2-10.6c2.3-2.9,2.6-1.8,0-4.9
	c-3.4-4-6.9-7.9-10.3-11.8c-2-2.4-2.4-4.8-1-7c0.9-1.4,2.2-2.1,3.9-2.1c12.9,0,25.8,0,38.6,0c1.1,0,1.6-0.3,2.2-1.2
	C54.8,13.7,68.2,3.9,86.1,0.8c16.1-2.8,30.6,1.5,43.5,11.3c6.2,4.7,11.1,10.6,15,17.3c0.4,0.7,0.9,1.1,1.8,1.1
	c12.9,0,25.8,0.1,38.6-0.1c3.9,0,6.2,4.2,4.4,7.3c-0.7,1.3-1.8,2.4-2.8,3.6c-3.3,3.8-6.6,7.6-9.9,11.4c-0.7,0.8-0.7,1.4,0,2.2
	c3.8,4.3,7.6,8.8,11.4,13.1c2,2.3,2.5,4.7,1,7.1c-0.9,1.5-2.2,2.1-3.9,2.1c-8.5,0-17,0-25.8,0c0,0.4,0,0.8,0,1.2c0,2.4,0,4.8,0,7.2
	c0.1,2.7-2,4.6-4.4,4.4C153.6,89.9,152.2,90,150.8,90z M149.5,58.4c-36.4,0-72.7,0-109,0c0,7.3,0,14.5,0,21.7c36.4,0,72.7,0,109,0
	C149.5,72.9,149.5,65.7,149.5,58.4z M141.3,48.4c-2.8-19-21.9-41.2-51.3-38.3c-13.1,1.3-23.8,7.3-32,17.5c-4.9,6.1-8.1,13-9.5,20.8
	c2.7,0,5.1,0,7.6,0c0.2-0.8,0.4-1.6,0.6-2.4c2.9-10.3,9.1-18,18.4-23.3c7.9-4.4,16.4-5.5,25.3-4.6c10.8,1.2,19.6,6.2,26.4,14.7
	c3.6,4.6,5.8,9.8,7.1,15.5C136.3,48.4,138.8,48.4,141.3,48.4z M123.6,48.4c0.1-1.7-0.6-3.3-2.1-5.8C114.1,29.9,102,26.1,89.5,28
	c-10.7,1.6-18.1,7.8-22.6,17.6c-0.4,0.9-0.5,1.9-0.8,2.9C85.4,48.4,104.5,48.4,123.6,48.4z M140.7,90c-2.2,0-4.3,0.1-6.5,0
	c-1,0-1.4,0.3-1.7,1.2c-2.9,8.7-8.4,15.4-16.2,20.3c-8.2,5.1-17.1,6.4-26.5,5.5c-8.5-0.8-15.9-4.2-22.2-10
	c-4.8-4.4-8.2-9.7-10.3-15.9c-0.1-0.4-0.5-1-0.8-1c-2.4-0.1-4.8,0-7.3,0c4.7,18.8,22.6,36,47.3,35.3
	C119.2,124.6,136.2,108.3,140.7,90z M67.3,90.1c3.5,10.6,16,17.9,29.8,17.4c11.1-0.4,23.4-8.7,25.6-17.4
	C104.2,90.1,85.8,90.1,67.3,90.1z M15.9,40.4c0.3,0.4,0.5,0.7,0.7,0.9c2.2,2.6,4.5,5.3,6.8,7.9c2.3,2.6,2.6,6.6,0,9.3
	c-2,2.1-3.7,4.4-5.6,6.6c-0.6,0.7-1.2,1.4-1.9,2.2c5,0,9.8,0,14.7,0c0-0.4,0-0.7,0-1c0-4.5,0-9,0-13.5c0-2.7,2-4.5,4.3-4.3
	c1.2,0.1,2.4,0,3.6,0c0.7-2.8,1.3-5.4,2-8.1C32.2,40.4,24.1,40.4,15.9,40.4z M151.6,48.5c1.2,0,2.3,0.1,3.3,0
	c2.6-0.3,4.6,1.8,4.5,4.6c-0.1,4.4,0,8.7,0,13.1c0,0.4,0,0.8,0,1.2c4.9,0,9.7,0,14.7,0c-2.6-3.1-5.1-6.1-7.7-9c-2.4-2.7-2.2-6.4,0-9
	c1.3-1.6,2.7-3.2,4-4.7c1.2-1.4,2.3-2.8,3.6-4.3c-8.3,0-16.4,0-24.5,0C150.2,43.1,150.9,45.7,151.6,48.5z"/>
</svg>
