<?xml version="1.0" encoding="utf-8"?>
<!-- Generator: Adobe Illustrator 21.0.0, SVG Export Plug-In . SVG Version: 6.00 Build 0)  -->
<svg version="1.1" id="Слой_1" xmlns="http://www.w3.org/2000/svg" xmlns:xlink="http://www.w3.org/1999/xlink" x="0px" y="0px"
	 viewBox="0 0 78.4 78.2" style="enable-background:new 0 0 78.4 78.2;" xml:space="preserve">
<style type="text/css">
	.st0{fill:#475DB0;}
</style>
<g>
	<path class="st0" d="M29.8,32c5.5,5.5,10.8,10.8,16.7,16.7c1.1-1.5,1.8-2.5,2.5-3.4c2.8-3.8,6.6-4.9,11-4.1
		c1.5,0.3,3.2,1.1,4.3,2.2c3.9,3.6,7.6,7.4,11.3,11.3c3.6,3.7,3.6,9-0.1,12.7c-3.3,3.3-6.3,7-10.8,9c-4.5,1.9-9.1,2.4-13.6,1.1
		c-21-6-36.1-19.2-46.4-38.2C1.7,33.6-0.1,27.5,0,21c0.1-5.3,1.6-10.1,5.7-13.8C7.2,5.8,8.5,4.4,9.9,3c3.9-3.8,10-4,13.9-0.2
		s7.7,7.6,11.5,11.5c3.3,3.4,3.2,9,0,12.4C33.7,28.3,32.1,29.8,29.8,32z M57.6,48.5c-1.3,1.4-2.6,2.9-3.9,4.2
		c-3.1,3.1-9.3,3.5-12.8,1C34.5,49,28.9,43.4,24.1,37c-2.8-3.8-2.4-8.6,0.9-12c1.5-1.5,3.2-2.8,4.6-4c-4.6-4.6-8.6-8.7-13-13.2
		c-1.4,1.6-2.8,3.2-4.3,4.7c-2.6,2.6-4,5.7-3.7,9.4c0.3,5,2,9.7,4.3,14.1C19.1,47.8,28,57.2,39.4,64c4.9,3,10.2,5.1,15.8,6
		c5,0.8,11.7-3.4,14.8-9.1C65.9,56.9,61.9,52.9,57.6,48.5z"/>
</g>
</svg>
